<?xml version="1.0" encoding="utf-8"?>
<!-- Generator: Adobe Illustrator 16.0.0, SVG Export Plug-In . SVG Version: 6.00 Build 0)  -->
<!DOCTYPE svg PUBLIC "-//W3C//DTD SVG 1.1//EN" "http://www.w3.org/Graphics/SVG/1.1/DTD/svg11.dtd">
<svg version="1.1"
	 id="svg3039" xmlns:cc="http://creativecommons.org/ns#" xmlns:dc="http://purl.org/dc/elements/1.1/" xmlns:inkscape="http://www.inkscape.org/namespaces/inkscape" xmlns:svg="http://www.w3.org/2000/svg" xmlns:sodipodi="http://sodipodi.sourceforge.net/DTD/sodipodi-0.dtd" xmlns:rdf="http://www.w3.org/1999/02/22-rdf-syntax-ns#" sodipodi:docname="Chromium_11_Logo.svg" inkscape:version="0.47 r22583"
	 xmlns="http://www.w3.org/2000/svg" xmlns:xlink="http://www.w3.org/1999/xlink" x="0px" y="0px" width="224.778px"
	 height="228.274px" viewBox="16.488 16.101 224.778 228.274" enable-background="new 16.488 16.101 224.778 228.274"
	 xml:space="preserve">
<sodipodi:namedview  id="namedview6" guidetolerance="10" showgrid="false" inkscape:cx="372.87473" bordercolor="#666666" inkscape:cy="103.791" borderopacity="1" inkscape:zoom="1.4142136" objecttolerance="10" gridtolerance="10" pagecolor="#ffffff" inkscape:current-layer="svg3039" inkscape:window-height="750" inkscape:window-x="-8" inkscape:pageopacity="0" inkscape:window-maximized="1" inkscape:pageshadow="2" inkscape:window-y="-8" inkscape:window-width="1280">
	</sodipodi:namedview>
<radialGradient id="path2814_1_" cx="-351.2671" cy="388.6172" r="25.4795" gradientTransform="matrix(0.1019 -4.5937 -4.5813 -0.1066 1945.2793 -1438.9742)" gradientUnits="userSpaceOnUse">
	<stop  offset="0" style="stop-color:#FFFFFF"/>
	<stop  offset="1" style="stop-color:#000000;stop-opacity:0"/>
</radialGradient>
<path id="path2814" sodipodi:cx="-118.23729" sodipodi:rx="25.491526" sodipodi:ry="25.491526" sodipodi:cy="122.57627" sodipodi:type="arc" fill="url(#path2814_1_)" d="
	M250.976,138.406c0,67.547-53.423,122.305-119.321,122.305c-65.9,0-119.323-54.758-119.323-122.305
	c0-67.548,53.422-122.306,119.323-122.306C197.553,16.101,250.976,70.858,250.976,138.406z"/>
<linearGradient id="path3655_1_" gradientUnits="userSpaceOnUse" x1="162.2266" y1="168.0264" x2="220.9159" y2="174.3903" gradientTransform="matrix(1 0 0 -1 3.4316 262.4844)">
	<stop  offset="0" style="stop-color:#B2CDE9"/>
	<stop  offset="1" style="stop-color:#C4DBEE"/>
</linearGradient>
<path id="path3655" sodipodi:nodetypes="cssscc" fill="url(#path3655_1_)" d="M232.172,88.121c0,15.674-19.791,34.931-45.844,34.931
	s-59.922-16.081-59.922-31.755s21.119-28.38,47.172-28.38c19.902,0,46.361,18.293,56.46,20.352
	C230.83,84.979,231.406,86.194,232.172,88.121z"/>
<path id="path3655-4-8" sodipodi:nodetypes="cssscc" fill="#2E5C91" d="M38.822,65.972c12.382-9.611,35.315-1.246,51.29,19.334
	c15.975,20.58,17.695,51.065,5.314,60.676c-12.382,9.611-34.176-5.291-50.151-25.872C33.07,104.389,41.224,78.92,36.658,69.68
	C37.274,68.558,38.04,67.224,38.822,65.972z"/>
<radialGradient id="path3596_1_" cx="229.1104" cy="728.1914" r="95.628" gradientTransform="matrix(-0.0076 0.5575 1.0315 0.014 -623.257 -103.3941)" gradientUnits="userSpaceOnUse">
	<stop  offset="0" style="stop-color:#658DB6"/>
	<stop  offset="0.7678" style="stop-color:#527FAB"/>
	<stop  offset="1" style="stop-color:#4071A0"/>
</radialGradient>
<path id="path3596" sodipodi:nodetypes="ccccsc" fill="url(#path3596_1_)" d="M230.043,83.262
	c-7.008-0.033-61.07,0.29-107.665,0.065c-17.371,5.108-31.705,13.259-39.182,29.155c-5.336-4.542-40.746-42.215-44.407-46.44
	c31.39-41.649,74.528-45.56,82.916-45.56S192.349,11.85,230.043,83.262L230.043,83.262z"/>
<path id="path3655-4" sodipodi:nodetypes="cssscc" fill="#699DD3" d="M117.125,243.969c-12.499-9.459-14.575-36.939,1.146-57.715
	c15.721-20.773,41.036-34.947,53.534-25.488s7.448,38.967-8.273,59.741c-12.01,15.87-35.491,16.886-43.227,23.694
	C119.065,244.156,118.35,244.141,117.125,243.969z"/>
<radialGradient id="path3596-1_1_" cx="-85.0757" cy="394.2422" r="60.482" gradientTransform="matrix(0.8129 1.6998 2.1519 -1.0292 -647.5955 677.6552)" gradientUnits="userSpaceOnUse">
	<stop  offset="0" style="stop-color:#D0E2F1"/>
	<stop  offset="0.8558" style="stop-color:#CADEF0"/>
	<stop  offset="1" style="stop-color:#95BEE3"/>
</radialGradient>
<path id="path3596-1" sodipodi:nodetypes="ccccsc" fill="url(#path3596-1_1_)" d="M120.303,244.201
	c3.583-6.023,28.859-52.899,52.691-92.939c4.412-17.561,5.348-33.642-4.559-48.149c6.622-2.294,58.239-13.977,63.737-14.988
	c19.966,48.18,1.45,87.338-2.806,94.566C225.113,189.918,200.966,247.947,120.303,244.201z"/>
<radialGradient id="path3596-1-7_1_" cx="-699.126" cy="494.4805" r="59.402" gradientTransform="matrix(-1.2862 -0.086 -0.1145 1.7137 -749.6606 -778.4558)" gradientUnits="userSpaceOnUse">
	<stop  offset="0" style="stop-color:#96D0E1"/>
	<stop  offset="0.6782" style="stop-color:#89B7E1"/>
	<stop  offset="1" style="stop-color:#699DD3"/>
</radialGradient>
<path id="path3596-1-7" sodipodi:nodetypes="ccccsc" fill="url(#path3596-1-7_1_)" d="M36.697,69.643
	c3.469,6.089,30.723,52.78,53.779,93.272c13.094,12.505,27.685,19.485,45.191,18.033c-1.273,6.892-16.629,57.751-18.464,63.031
	c-51.756-6.421-76.669-41.854-80.854-49.123S-6.381,137.941,36.697,69.643z"/>
<linearGradient id="path3645_1_" gradientUnits="userSpaceOnUse" x1="-347.9443" y1="21.2681" x2="-347.6904" y2="119.0998" gradientTransform="matrix(0.7729 0 0 -0.7762 397.4609 185.5816)">
	<stop  offset="0" style="stop-color:#3B79BC"/>
	<stop  offset="1" style="stop-color:#94B8E0"/>
</linearGradient>
<linearGradient id="path3645_2_" gradientUnits="userSpaceOnUse" x1="-348.1436" y1="133.1836" x2="-347.4966" y2="4.8796" gradientTransform="matrix(0.7729 0 0 -0.7762 397.4609 185.5816)">
	<stop  offset="0" style="stop-color:#D7DEF0"/>
	<stop  offset="0.5" style="stop-color:#FFFFFF"/>
	<stop  offset="1" style="stop-color:#D5DEF0"/>
</linearGradient>
<path id="path3645" fill="url(#path3645_1_)" stroke="url(#path3645_2_)" stroke-width="10.0701" d="M174.31,132
	c0,25.343-20.458,45.887-45.695,45.887S82.918,157.343,82.918,132c0-25.343,20.458-45.887,45.696-45.887S174.31,106.657,174.31,132z
	"/>
<path id="rect3782" sodipodi:nodetypes="ccc" fill="#FFFFFF" d="M163.547,108.896c18.529,17.098,16.032,29.557,10.063,44
	C170.5,130.646,171.264,120.469,163.547,108.896z"/>
<path id="rect3782-4" sodipodi:nodetypes="ccc" fill="#FFFFFF" d="M101.421,173.639c-22.646-14.473-29.81-45.719-8.813-62.99
	C81.76,130.424,86.382,143.047,101.421,173.639z"/>
</svg>
