<?xml version="1.0" encoding="utf-8"?>
<!-- Generator: Adobe Illustrator 16.0.0, SVG Export Plug-In . SVG Version: 6.00 Build 0)  -->
<!DOCTYPE svg PUBLIC "-//W3C//DTD SVG 1.1//EN" "http://www.w3.org/Graphics/SVG/1.1/DTD/svg11.dtd">
<svg version="1.1" id="Calque_1" xmlns="http://www.w3.org/2000/svg" xmlns:xlink="http://www.w3.org/1999/xlink" x="0px" y="0px"
	 width="140.81px" height="182.021px" viewBox="0 0 140.81 182.021" enable-background="new 0 0 140.81 182.021"
	 xml:space="preserve">
<g>
	<polygon fill="#566181" points="140.81,48.085 92.729,0 0,0 0,182.021 140.81,182.021 	"/>
	<polygon fill="#3E4552" points="92.729,0 92.729,48.085 140.81,48.085 	"/>
</g>
<path fill="#3492D0" d="M100.065,78.341c-2.67,0-4.841-2.171-4.841-4.841v-9.681c0-4.003-3.257-7.261-7.26-7.261
	c-1.339,0-2.421,1.085-2.421,2.42c0,1.336,1.082,2.421,2.421,2.421c1.336,0,2.42,1.087,2.42,2.42V73.5
	c0,2.904,1.312,5.484,3.345,7.261c-2.033,1.776-3.345,4.356-3.345,7.261v9.681c0,1.334-1.084,2.42-2.42,2.42
	c-1.339,0-2.421,1.085-2.421,2.421s1.082,2.42,2.421,2.42c4.003,0,7.26-3.258,7.26-7.261v-9.681c0-2.67,2.171-4.841,4.841-4.841
	c1.338,0,2.42-1.084,2.42-2.42S101.403,78.341,100.065,78.341z"/>
<path fill="#3492D0" d="M38.18,80.761c0,1.336,1.082,2.42,2.42,2.42c2.67,0,4.841,2.171,4.841,4.841v9.681
	c0,4.003,3.257,7.261,7.26,7.261c1.339,0,2.421-1.084,2.421-2.42s-1.082-2.421-2.421-2.421c-1.336,0-2.42-1.086-2.42-2.42v-9.681
	c0-2.904-1.312-5.484-3.345-7.261c2.033-1.776,3.345-4.356,3.345-7.261v-9.681c0-1.333,1.084-2.42,2.42-2.42
	c1.339,0,2.421-1.085,2.421-2.421c0-1.335-1.082-2.42-2.421-2.42c-4.003,0-7.26,3.258-7.26,7.261V73.5
	c0,2.67-2.171,4.841-4.841,4.841C39.262,78.341,38.18,79.425,38.18,80.761z"/>
<rect y="126.427" fill="#3492D0" width="140.81" height="55.594"/>
<g>
	<path fill="#566181" d="M55.643,168.605c-1.305,1.27-2.784,2.226-4.435,2.86c-1.649,0.635-3.433,0.952-5.341,0.952
		c-2.1,0-4.028-0.38-5.794-1.145c-1.766-0.764-3.307-1.891-4.626-3.387c-1.318-1.497-2.354-3.37-3.101-5.627
		c-0.747-2.257-1.12-4.866-1.12-7.821s0.373-5.557,1.12-7.797c0.746-2.243,1.782-4.109,3.101-5.603
		c1.319-1.493,2.868-2.63,4.65-3.411c1.782-0.782,3.705-1.169,5.77-1.169c1.908,0,3.691,0.317,5.341,0.952
		c1.65,0.635,3.13,1.591,4.435,2.86l-3.96,3.53c-0.795-0.924-1.674-1.591-2.647-2.002c-0.974-0.412-1.978-0.621-3.028-0.621
		c-1.176,0-2.295,0.22-3.362,0.666c-1.067,0.447-2.02,1.2-2.86,2.265c-0.841,1.063-1.504,2.438-1.979,4.127s-0.732,3.75-0.764,6.199
		c0.031,2.386,0.279,4.419,0.739,6.104c0.461,1.685,1.096,3.06,1.908,4.127s1.733,1.842,2.767,2.337
		c1.032,0.495,2.121,0.739,3.269,0.739s2.219-0.209,3.22-0.62c1.001-0.412,1.915-1.082,2.742-2.003L55.643,168.605z"/>
	<path fill="#566181" d="M83.735,162.546c0,1.27-0.262,2.505-0.789,3.697c-0.526,1.193-1.263,2.243-2.219,3.146
		c-0.956,0.904-2.128,1.63-3.53,2.17c-1.402,0.541-2.985,0.81-4.769,0.81c-0.764,0-1.549-0.042-2.361-0.118
		c-0.813-0.077-1.629-0.217-2.456-0.405c-0.827-0.188-1.615-0.453-2.361-0.788c-0.747-0.335-1.389-0.739-1.933-1.218l1.001-4.102
		c0.446,0.254,1.008,0.502,1.691,0.739c0.684,0.236,1.389,0.46,2.121,0.666s1.462,0.373,2.194,0.502
		c0.732,0.13,1.413,0.192,2.052,0.192c1.939,0,3.425-0.454,4.457-1.36c1.033-0.907,1.55-2.25,1.55-4.029
		c0-1.081-0.363-2.003-1.096-2.767s-1.646-1.454-2.742-2.075c-1.095-0.621-2.281-1.239-3.555-1.859
		c-1.273-0.621-2.463-1.354-3.575-2.194c-1.113-0.841-2.034-1.835-2.767-2.979s-1.096-2.574-1.096-4.291
		c0-1.556,0.286-2.94,0.858-4.147s1.343-2.236,2.313-3.077c0.97-0.841,2.1-1.486,3.387-1.933s2.648-0.666,4.078-0.666
		c1.461,0,2.94,0.136,4.435,0.404c1.492,0.27,2.699,0.708,3.624,1.312c-0.192,0.412-0.412,0.865-0.666,1.361
		c-0.256,0.495-0.496,0.952-0.716,1.381c-0.22,0.43-0.411,0.789-0.572,1.074c-0.16,0.286-0.255,0.447-0.286,0.479
		c-0.191-0.095-0.404-0.22-0.646-0.381c-0.24-0.16-0.578-0.316-1.025-0.478c-0.446-0.16-1.032-0.269-1.765-0.335
		c-0.733-0.066-1.671-0.049-2.815,0.049c-0.639,0.066-1.238,0.244-1.814,0.548c-0.575,0.304-1.081,0.673-1.527,1.12
		c-0.446,0.446-0.795,0.945-1.05,1.503c-0.255,0.559-0.381,1.092-0.381,1.598c0,1.271,0.363,2.296,1.096,3.077
		s1.64,1.462,2.717,2.052c1.078,0.589,2.258,1.161,3.531,1.716s2.456,1.234,3.555,2.026s2.009,1.79,2.741,2.979
		C83.358,159.134,83.735,160.669,83.735,162.546z"/>
	<path fill="#566181" d="M109.584,162.546c0,1.27-0.261,2.505-0.788,3.697c-0.526,1.193-1.263,2.243-2.219,3.146
		c-0.956,0.904-2.128,1.63-3.53,2.17c-1.402,0.541-2.986,0.81-4.769,0.81c-0.764,0-1.549-0.042-2.362-0.118
		c-0.813-0.077-1.628-0.217-2.455-0.405c-0.827-0.188-1.615-0.453-2.362-0.788c-0.746-0.335-1.388-0.739-1.933-1.218l1.002-4.102
		c0.446,0.254,1.008,0.502,1.691,0.739c0.684,0.236,1.389,0.46,2.121,0.666s1.462,0.373,2.194,0.502
		c0.732,0.13,1.413,0.192,2.051,0.192c1.939,0,3.426-0.454,4.459-1.36c1.032-0.907,1.548-2.25,1.548-4.029
		c0-1.081-0.362-2.003-1.095-2.767s-1.646-1.454-2.741-2.075c-1.096-0.621-2.282-1.239-3.555-1.859
		c-1.274-0.621-2.464-1.354-3.576-2.194c-1.113-0.841-2.034-1.835-2.767-2.979s-1.096-2.574-1.096-4.291
		c0-1.556,0.286-2.94,0.858-4.147s1.343-2.236,2.313-3.077s2.101-1.486,3.388-1.933s2.647-0.666,4.078-0.666
		c1.462,0,2.94,0.136,4.434,0.404c1.493,0.27,2.7,0.708,3.625,1.312c-0.192,0.412-0.412,0.865-0.667,1.361
		c-0.254,0.495-0.495,0.952-0.715,1.381c-0.22,0.43-0.412,0.789-0.572,1.074c-0.16,0.286-0.254,0.447-0.285,0.479
		c-0.192-0.095-0.405-0.22-0.646-0.381c-0.241-0.16-0.58-0.316-1.025-0.478c-0.447-0.16-1.033-0.269-1.766-0.335
		s-1.671-0.049-2.815,0.049c-0.639,0.066-1.238,0.244-1.814,0.548c-0.575,0.304-1.081,0.673-1.527,1.12
		c-0.446,0.446-0.795,0.945-1.051,1.503c-0.254,0.559-0.38,1.092-0.38,1.598c0,1.271,0.363,2.296,1.096,3.077
		s1.64,1.462,2.718,2.052c1.077,0.589,2.257,1.161,3.53,1.716c1.272,0.555,2.455,1.234,3.555,2.026
		c1.099,0.792,2.01,1.79,2.741,2.979C109.207,159.134,109.584,160.669,109.584,162.546z"/>
</g>
</svg>
