<?xml version="1.0" encoding="utf-8"?>
<!-- Generator: Adobe Illustrator 16.0.0, SVG Export Plug-In . SVG Version: 6.00 Build 0)  -->
<!DOCTYPE svg PUBLIC "-//W3C//DTD SVG 1.1//EN" "http://www.w3.org/Graphics/SVG/1.1/DTD/svg11.dtd">
<svg version="1.1" id="Calque_1" xmlns="http://www.w3.org/2000/svg" xmlns:xlink="http://www.w3.org/1999/xlink" x="0px" y="0px"
	 width="140.811px" height="182.021px" viewBox="0 0 140.811 182.021" enable-background="new 0 0 140.811 182.021"
	 xml:space="preserve">
<g>
	<path fill="#566181" d="M38.45,94.094c-2.927,1.668-5.458,3.526-7.75,5.641c-1.744,1.604-3.032,3.681-3.664,6.022l-0.022,0.089
		c-0.54,2.221-0.27,3.659,0.811,4.317c0.657,0.303,1.432,0.48,2.24,0.48c0.886,0,1.725-0.209,2.462-0.584l-0.032,0.014
		c2.138-0.775,3.947-2.012,5.387-3.59l0.011-0.012l0.02,0.024c2.501-2.584,4.044-6.11,4.044-9.996c0-1.464-0.223-2.876-0.627-4.206
		L38.45,94.094z"/>
	<path fill="#566181" d="M92.729,48.085V0H0v126.429h140.81V48.085H92.729z M131.064,93.184v-0.021
		c-0.11,2.084-1.058,3.922-2.512,5.211l-0.007,0.006c-0.795,0.781-1.756,1.394-2.824,1.781l-0.055,0.019
		c-0.602,0.12-0.931,0.03-0.989-0.271c-0.061-0.299,0.209-0.629,0.81-0.988c1.628-0.985,2.804-2.575,3.231-4.45l0.011-0.048
		c0.012-0.151,0.02-0.327,0.02-0.508c0-1.104-0.263-2.149-0.724-3.076c-0.779-1.628-1.944-2.966-3.38-3.934l-0.036-0.021
		c-2.147-1.382-4.725-2.288-7.496-2.516l-0.058-0.003c-0.942-0.141-2.029-0.22-3.138-0.22c-2.826,0-5.524,0.528-8.018,1.48
		c0.521,1.221,0.849,2.632,0.896,4.114v0.019c-0.06,3.041-1.691,5.686-4.12,7.16l-0.04,0.021c-1.115,0.793-2.39,1.486-3.746,2.026
		l-0.126,0.044c-0.824,0.401-1.793,0.637-2.813,0.637c-0.118,0-0.233-0.004-0.35-0.01h0.019C93.343,99.159,92.802,97.18,94,93.7
		c0.521-1.516,1.252-2.829,2.178-3.984l-0.021,0.024c1.184-1.547,2.482-2.903,3.919-4.104l0.04-0.033l-0.354-0.525
		c-0.659-1.123-1.264-2.43-1.749-3.793l-0.051-0.166c-0.36-1.2-0.659-2.338-0.899-3.415l-0.18-1.259l-1.8,3.415
		c-1.56,2.879-3.06,5.396-4.498,7.554l-0.54,0.898c0.604,1.469,1.051,3.171,1.253,4.949l0.007,0.09
		c0.015,0.17,0.021,0.371,0.021,0.571c0,2.728-1.347,5.14-3.411,6.609l-0.025,0.018c-0.986,0.609-2.162,1.238-3.383,1.802
		l-0.215,0.09c-1.271,0.551-2.743,0.91-4.287,0.988h-0.032c-0.118,0.008-0.259,0.016-0.398,0.016c-0.898,0-1.752-0.205-2.516-0.568
		l0.036,0.015c-0.457-0.394-0.745-0.97-0.745-1.611c0-0.325,0.074-0.635,0.205-0.91c-0.001,0.002-0.003,0.004-0.004,0.006
		l0.007-0.014c-0.001,0.003-0.002,0.006-0.003,0.008c1.438-2.015,2.854-3.77,4.361-5.445l-0.047,0.054l3.958-5.033l-0.716-1.619
		c-0.575-1.058-1.127-2.307-1.568-3.602l-0.051-0.174c-0.36-1.198-0.659-2.337-0.9-3.414l-0.18-1.261l-1.8,4.318
		c-1.438,3.356-2.757,6.234-3.957,8.633c-1.794,3.598-3.293,6.357-4.498,8.275l-0.36,0.541c-1.438,2.274-2.816,3.414-4.138,3.414
		c-1.322,0-2.219-0.841-2.688-2.519c-0.346-1.238-0.547-2.66-0.547-4.129c0-0.129,0-0.258,0.003-0.389v0.018l0.322-2.248
		c-0.947,2.242-1.895,4.312-2.84,6.203c-0.624,1.219-1.266,2.26-1.979,3.24l0,0l-0.047,0.065c0.016-0.021,0.031-0.044,0.046-0.065
		c-0.741,0.777-1.785,1.26-2.939,1.26c-0.012,0-0.019,0-0.029,0c-0.076,0.006-0.162,0.006-0.248,0.006
		c-0.91,0-1.737-0.346-2.363-0.909c0.001,0.001,0.001,0.002,0.002,0.004l-0.004-0.005l0.001,0.001
		c-1.254-1.287-2.187-2.895-2.668-4.689l-0.018-0.076c-0.59-1.637-0.93-3.529-0.93-5.502c0-0.254,0.008-0.506,0.019-0.756v0.037
		c0.274-2.77,0.825-5.308,1.617-7.731l-6.472,3.777v0.181c0.939,1.95,1.49,4.239,1.49,6.657c0,0.43-0.019,0.856-0.052,1.276
		c0-0.008,0.001-0.016,0.002-0.022L46.334,98.8c0.001-0.012,0-0.022,0.001-0.035c-0.194,3.691-1.372,7.068-3.271,9.927
		c0.012-0.019,0.023-0.033,0.035-0.051l-0.047,0.069c0.004-0.006,0.008-0.013,0.012-0.02c-2.003,3.154-4.878,5.594-8.292,7.008
		l-0.119,0.043c-1.932,0.869-4.191,1.375-6.566,1.375c-1.504,0-2.965-0.201-4.347-0.582l0.114,0.025
		c-1.144-0.386-2.08-1.148-2.673-2.136l-0.011-0.021c-0.838-1.217-1.368-2.703-1.45-4.303v-0.023
		c-0.04-0.363-0.062-0.783-0.062-1.213c0-1.822,0.414-3.547,1.146-5.09c-0.002,0.003-0.004,0.006-0.006,0.01l0.032-0.072
		c-0.011,0.021-0.017,0.042-0.026,0.063c2.065-3.52,4.919-6.369,8.328-8.375l0.108-0.057c2.415-1.675,5.188-3.298,8.086-4.711
		l0.381-0.169l0.899-0.541c-1.08-0.839-3.059-2.277-5.938-4.317c-3.821-2.56-7.145-5.145-10.277-7.938
		c0.008,0.007,0.017,0.017,0.024,0.023l-0.09-0.079c0.021,0.019,0.044,0.037,0.064,0.056c-3.035-2.621-5.247-6.115-6.241-10.096
		l-0.028-0.137c-0.094-0.555-0.147-1.191-0.147-1.839c0-2.03,0.522-3.938,1.437-5.597l-0.029,0.062
		c2.016-4.333,4.808-7.985,8.233-10.921l0.043-0.036c3.707-3.502,7.901-6.549,12.458-9.02l0.313-0.153
		c4.07-2.351,8.824-4.534,13.779-6.287l0.611-0.188c4.604-1.684,9.917-2.67,15.459-2.688h0.008c0.252-0.007,0.551-0.016,0.849-0.016
		c4.404,0,8.573,1.009,12.29,2.801c-0.003-0.001-0.005-0.002-0.008-0.005l0.165,0.076c-0.053-0.024-0.105-0.047-0.157-0.071
		c3.235,1.477,5.658,4.252,6.628,7.646l0.021,0.086c0.299,1.159,0.468,2.49,0.468,3.861c0,2.235-0.46,4.364-1.279,6.303
		c0-0.001,0.001-0.001,0.001-0.002l-0.039,0.104c0.016-0.033,0.024-0.069,0.038-0.104c-1.539,3.731-3.729,6.908-6.465,9.523
		l-0.011,0.011c-2.771,2.746-6.094,4.94-9.781,6.406l-0.197,0.067c-3.865,1.659-8.353,2.702-13.063,2.875l-0.068,0.003
		c-0.691,0.079-1.49,0.123-2.3,0.123c-2.13,0-4.186-0.306-6.128-0.878l0.155,0.039c-1.738-0.554-3.238-1.414-4.514-2.529
		l0.016,0.012c-0.894-0.728-1.62-1.623-2.139-2.643l-0.021-0.046c-0.36-0.96-0.391-1.528-0.09-1.709c0.3-0.18,0.51-0.21,0.63-0.09
		l0.899,0.899c1.004,0.932,2.202,1.666,3.526,2.134l0.072,0.021c1.82,0.634,3.922,1,6.105,1c0.676,0,1.342-0.034,1.998-0.104
		c5.781-0.684,10.996-2.65,15.503-5.604c3.81-2.275,6.896-5.396,9.067-9.113l0.063-0.122c1.083-1.591,1.73-3.556,1.73-5.671
		c0-1.275-0.239-2.497-0.669-3.624c-1.346-2.125-3.521-3.62-6.062-4.034l-0.05-0.007c-1.972-0.486-4.239-0.768-6.566-0.768
		c-1.875,0-3.71,0.181-5.484,0.525l0.18-0.029c-6.07,1.094-11.497,2.969-16.502,5.545l0.327-0.153
		c-14.749,7.437-22.365,15.052-22.847,22.847v0.176c0,3.14,1.233,5.992,3.243,8.101c2.292,2.548,4.825,4.797,7.593,6.739l0.14,0.094
		c2.523,1.887,4.754,3.833,6.83,5.936l0.003,0.007l0.36,0.36l11.516-6.294c1.313-1.9,2.894-3.505,4.707-4.802l0.058-0.04
		c1.438-1.209,3.268-1.996,5.271-2.154l0.033-0.003c0.072-0.007,0.154-0.007,0.241-0.007c1.342,0,2.493,0.81,2.989,1.968
		l0.008,0.021c0.378,0.847,0.597,1.835,0.597,2.875c0,0.309-0.022,0.611-0.06,0.912l0.001-0.008l-0.003,0.036
		c0.001-0.009,0-0.02,0.002-0.028l-0.348,1.767l0.54-0.36c0.374-0.284,0.846-0.454,1.356-0.454c0.323,0,0.63,0.069,0.906,0.191
		l-0.015-0.008c0.691,0.181,1.191,0.8,1.191,1.533c0,0.126-0.016,0.249-0.043,0.367l0.004-0.011l-0.541,1.979
		c-1.079,4.316-1.797,7.434-2.155,9.354c-0.18,0.623-0.28,1.338-0.28,2.08c0,0.153,0.003,0.307,0.015,0.457v-0.021
		c0.06,0.719,0.149,1.08,0.27,1.08s0.359-0.361,0.716-1.08l0.54-1.26c0.046,0,0.06,0.017,0.069,0.035l1.91-3.994
		c4.678-10.311,7.194-16.067,7.553-17.272l1.08-3.415c0.12-0.239,0.6-0.479,1.438-0.716c0.854-0.229,1.828-0.363,2.837-0.363
		c0.081,0,0.163,0,0.243,0.004h-0.01c1.679,0,2.519,0.42,2.519,1.26l-0.181,0.899c-0.401,1.108-0.803,2.494-1.11,3.911l-0.039,0.228
		c-0.072,0.464-0.115,0.997-0.115,1.544c0,0.727,0.07,1.436,0.211,2.124l-0.01-0.068l0.18,0.716c0.361,1.476,0.907,2.772,1.62,3.957
		c1.437-2.396,2.814-4.854,4.138-7.372c1.043-1.737,2.015-3.753,2.796-5.861l0.082-0.252c0.271-1.357,0.58-2.501,0.958-3.617
		l-0.059,0.202c0.12-0.36,0.633-0.629,1.537-0.811c0.855-0.173,1.839-0.27,2.844-0.27h0.121h0.008h-0.008
		c1.68,0,2.576,0.42,2.688,1.26l-0.358,0.716c-0.429,1.209-0.803,2.663-1.056,4.157l-0.021,0.162
		c-0.033,0.349-0.055,0.752-0.055,1.163c0,0.859,0.087,1.702,0.249,2.515l-0.016-0.083v0.716c0.414,1.569,1.029,2.947,1.835,4.196
		l-0.035-0.058l0.539,1.259c3.006-1.476,6.539-2.339,10.273-2.339h0.134h0.008h-0.008l-0.003,0.011
		c0.14-0.004,0.306-0.007,0.476-0.007c3,0,5.839,0.697,8.357,1.942l-0.111-0.05c2.297,1.119,4.183,2.774,5.547,4.804l0.031,0.051
		c1.075,1.568,1.717,3.508,1.717,5.596C131.075,92.885,131.073,93.038,131.064,93.184z"/>
	<path fill="#566181" d="M98.372,92.188l-0.039,0.082c-1.082,2.158-1.384,3.414-0.907,3.771l0.011,0.006
		c2.722-0.776,4.68-3.239,4.68-6.158c0-0.044,0-0.089,0-0.133c-0.035-0.7-0.161-1.357-0.364-1.982
		C100.352,89.018,99.204,90.508,98.372,92.188z"/>
	<path fill="#566181" d="M80.89,99.471c-0.055,0.043-0.09,0.106-0.09,0.18s0.035,0.137,0.086,0.18
		c0.115,0.117,0.475-0.002,1.08-0.358v-0.004c2.493-1.119,4.249-3.478,4.493-6.267l0.006-0.027v-0.18l-1.98,2.519L80.89,99.471z"/>
	<path fill="#566181" d="M63.268,79.14c-1,0.485-1.839,1.151-2.508,1.968l-0.011,0.015c-0.748,0.946-1.46,2.004-2.094,3.116
		l-0.065,0.122c-0.728,1.191-1.342,2.562-1.771,4.016l-0.032,0.122c-0.694,1.882-1.099,4.059-1.099,6.326
		c0,0.307,0.007,0.609,0.022,0.91v-0.043c0.12,2.396,0.503,3.688,1.15,3.869c0.648,0.181,1.397-0.688,2.25-2.609
		c0.824-1.486,1.559-3.213,2.105-5.022l0.05-0.193c0.357-0.85,0.603-1.451,0.734-1.804h0.007c0.6-1.561,1.259-3.418,1.979-5.577
		c0.959-2.879,1.29-4.558,0.99-5.034C64.678,78.844,64.108,78.782,63.268,79.14z"/>
	<polygon fill="#3E4552" points="140.81,48.085 92.729,0 92.729,48.085 	"/>
	<path fill="#3492D0" d="M0,182.021h140.81v-55.594H0V182.021z M111.792,156.331c-5.847-2.072-9.459-5.101-9.459-10.146
		c0-5.579,4.623-9.725,11.584-9.725c3.666,0,6.322,0.852,7.918,1.753l-1.277,3.771c-1.168-0.638-3.561-1.7-6.801-1.7
		c-4.889,0-6.748,2.923-6.748,5.368c0,3.345,2.178,4.995,7.119,6.906c6.059,2.339,9.141,5.261,9.141,10.521
		c0,5.523-4.092,10.308-12.541,10.308c-3.453,0-7.225-1.011-9.137-2.285l1.168-3.88c2.072,1.275,5.1,2.339,8.287,2.339
		c4.729,0,7.492-2.498,7.492-6.111C118.538,160.102,116.626,158.192,111.792,156.331z M85.583,156.331
		c-5.847-2.072-9.459-5.101-9.459-10.146c0-5.579,4.621-9.725,11.582-9.725c3.668,0,6.324,0.852,7.918,1.753l-1.275,3.771
		c-1.17-0.638-3.559-1.7-6.801-1.7c-4.887,0-6.748,2.923-6.748,5.368c0,3.345,2.18,4.995,7.119,6.906
		c6.057,2.339,9.141,5.261,9.141,10.521c0,5.523-4.092,10.308-12.541,10.308c-3.453,0-7.226-1.011-9.138-2.285l1.169-3.88
		c2.072,1.275,5.1,2.339,8.288,2.339c4.729,0,7.491-2.498,7.491-6.111C92.329,160.102,90.417,158.192,85.583,156.331z
		 M62.929,136.46c4.465,0,7.28,0.957,8.502,1.596l-1.117,3.77c-1.752-0.848-4.251-1.484-7.225-1.484
		c-8.396,0-13.975,5.366-13.975,14.77c0,8.769,5.046,14.4,13.762,14.4c2.815,0,5.686-0.587,7.545-1.487l0.957,3.667
		c-1.701,0.849-5.103,1.699-9.458,1.699c-10.096,0-17.694-6.376-17.694-18.118C44.227,144.057,51.825,136.46,62.929,136.46z
		 M28.539,156.331c-5.846-2.072-9.458-5.101-9.458-10.146c0-5.579,4.622-9.725,11.583-9.725c3.666,0,6.322,0.852,7.917,1.753
		l-1.276,3.771c-1.169-0.638-3.56-1.7-6.802-1.7c-4.886,0-6.747,2.923-6.747,5.368c0,3.345,2.179,4.995,7.12,6.906
		c6.057,2.339,9.138,5.261,9.138,10.521c0,5.523-4.09,10.308-12.54,10.308c-3.452,0-7.225-1.011-9.137-2.285l1.168-3.88
		c2.072,1.275,5.1,2.339,8.289,2.339c4.728,0,7.491-2.498,7.491-6.111C35.286,160.102,33.374,158.192,28.539,156.331z"/>
	<line fill="none" x1="100.884" y1="66.725" x2="100.891" y2="66.725"/>
	<line fill="none" x1="115.062" y1="80.388" x2="115.07" y2="80.388"/>
	<path fill="#3492D0" d="M20.799,103.782c0.002-0.004,0.004-0.007,0.006-0.01c0.01-0.021,0.016-0.042,0.026-0.063L20.799,103.782z"
		/>
	<path fill="#3492D0" d="M58.929,105.233L58.929,105.233c-0.016,0.021-0.031,0.045-0.047,0.065L58.929,105.233z"/>
	<path fill="#3492D0" d="M43.099,108.637c-0.011,0.018-0.023,0.032-0.035,0.051c-0.004,0.007-0.008,0.014-0.012,0.02L43.099,108.637
		z"/>
	<polygon fill="#3492D0" points="53.351,105.594 53.349,105.59 53.347,105.589 	"/>
	<path fill="#3492D0" d="M46.338,98.739c0,0.008-0.001,0.016-0.002,0.022c-0.001,0.013,0,0.023-0.001,0.035L46.338,98.739z"/>
	<polygon fill="#3492D0" points="76.551,100.374 76.554,100.368 76.557,100.36 	"/>
	<path fill="#3492D0" d="M87.266,51.449c0,0-0.001,0.001-0.001,0.002c-0.014,0.033-0.022,0.069-0.038,0.104L87.266,51.449z"/>
	<path fill="#3492D0" d="M68.115,80.238l-0.001,0.008c-0.002,0.009-0.002,0.02-0.003,0.028L68.115,80.238z"/>
	<path fill="#3492D0" d="M129.327,87.089c-1.364-2.029-3.25-3.685-5.546-4.804l0.11,0.05c-2.52-1.245-5.357-1.942-8.357-1.942
		c-0.169,0-0.335,0.003-0.476,0.007l0.003-0.011h-0.134c-3.734,0-7.269,0.863-10.273,2.339l-0.538-1.259l0.034,0.058
		c-0.806-1.249-1.421-2.627-1.835-4.196v-0.716l0.016,0.083c-0.162-0.813-0.249-1.655-0.249-2.515c0-0.411,0.021-0.813,0.055-1.163
		l0.021-0.162c0.252-1.494,0.626-2.948,1.055-4.157l0.359-0.716c-0.112-0.84-1.01-1.26-2.688-1.26h-0.121
		c-1.005,0-1.987,0.097-2.844,0.27c-0.904,0.18-1.417,0.45-1.537,0.811l0.059-0.202c-0.378,1.115-0.688,2.26-0.958,3.617
		L95.4,71.471c-0.781,2.108-1.753,4.124-2.796,5.861c-1.321,2.52-2.701,4.977-4.138,7.372c-0.713-1.185-1.259-2.481-1.62-3.957
		l-0.18-0.716l0.01,0.068c-0.141-0.688-0.211-1.396-0.211-2.124c0-0.547,0.043-1.08,0.115-1.544l0.039-0.228
		c0.309-1.417,0.709-2.803,1.11-3.911l0.181-0.899c0-0.839-0.84-1.261-2.519-1.261h0.01c-0.079-0.003-0.161-0.003-0.243-0.003
		c-1.009,0-1.983,0.134-2.836,0.363c-0.841,0.238-1.319,0.478-1.439,0.716l-1.08,3.415c-0.357,1.205-2.875,6.962-7.553,17.272
		l-1.91,3.994c-0.011-0.02-0.023-0.035-0.069-0.035l-0.54,1.26c-0.356,0.719-0.596,1.08-0.716,1.08s-0.21-0.361-0.27-1.08v0.021
		c-0.012-0.15-0.015-0.304-0.015-0.457c0-0.742,0.102-1.457,0.28-2.08c0.358-1.92,1.076-5.037,2.155-9.354l0.541-1.979l-0.004,0.011
		c0.027-0.119,0.043-0.241,0.043-0.367c0-0.733-0.5-1.353-1.191-1.533l0.015,0.008c-0.276-0.122-0.583-0.191-0.906-0.191
		c-0.512,0-0.982,0.169-1.356,0.454l-0.54,0.36l0.349-1.767c0.036-0.301,0.059-0.604,0.059-0.912c0-1.041-0.219-2.029-0.597-2.875
		l-0.008-0.021c-0.496-1.159-1.647-1.968-2.989-1.968c-0.086,0-0.169,0-0.241,0.007l-0.033,0.003
		c-2.004,0.159-3.833,0.945-5.271,2.154l-0.058,0.04c-1.813,1.297-3.394,2.901-4.707,4.802L42.753,87.77l-0.36-0.36l-0.003-0.007
		c-2.076-2.102-4.307-4.049-6.83-5.935l-0.14-0.095c-2.768-1.942-5.3-4.191-7.593-6.738c-2.01-2.109-3.243-4.962-3.243-8.102v-0.176
		c0.481-7.795,8.098-15.41,22.847-22.847l-0.327,0.153c5.005-2.576,10.433-4.451,16.502-5.545l-0.18,0.029
		c1.774-0.346,3.61-0.525,5.484-0.525c2.328,0,4.596,0.28,6.566,0.768l0.05,0.007c2.539,0.414,4.716,1.91,6.062,4.034
		c0.43,1.127,0.669,2.349,0.669,3.624c0,2.115-0.647,4.081-1.73,5.671l-0.063,0.122c-2.173,3.718-5.259,6.838-9.067,9.113
		c-4.507,2.953-9.722,4.919-15.503,5.604c-0.656,0.07-1.322,0.104-1.998,0.104c-2.184,0-4.286-0.366-6.105-1l-0.072-0.021
		c-1.324-0.468-2.522-1.202-3.526-2.134l-0.899-0.899c-0.12-0.12-0.33-0.09-0.63,0.09c-0.3,0.181-0.271,0.75,0.09,1.709l0.021,0.046
		c0.519,1.02,1.245,1.915,2.139,2.643l-0.016-0.011c1.274,1.115,2.774,1.976,4.514,2.528l-0.155-0.039
		c1.942,0.572,3.998,0.878,6.128,0.878c0.81,0,1.608-0.043,2.3-0.123l0.068-0.003c4.71-0.173,9.196-1.216,13.063-2.875l0.197-0.067
		c3.688-1.465,7.01-3.66,9.781-6.406l0.011-0.011c2.735-2.616,4.926-5.792,6.465-9.523c0.819-1.938,1.279-4.066,1.279-6.303
		c0-1.371-0.169-2.703-0.468-3.861l-0.021-0.086c-0.97-3.395-3.393-6.17-6.628-7.646c-3.717-1.792-7.886-2.801-12.29-2.801
		c-0.298,0-0.597,0.008-0.849,0.016h-0.007c-5.542,0.018-10.856,1.004-15.459,2.688l-0.612,0.188
		c-4.955,1.752-9.709,3.937-13.779,6.287l-0.313,0.153c-4.557,2.47-8.751,5.518-12.458,9.02l-0.043,0.036
		c-3.426,2.936-6.219,6.589-8.233,10.921l0.029-0.062c-0.914,1.659-1.437,3.566-1.437,5.597c0,0.647,0.055,1.284,0.147,1.839
		l0.028,0.137c0.994,3.979,3.206,7.475,6.241,10.096c3.133,2.792,6.456,5.377,10.277,7.938c2.878,2.04,4.856,3.479,5.938,4.317
		l-0.899,0.541l-0.381,0.169c-2.897,1.414-5.671,3.037-8.086,4.711l-0.108,0.057c-3.408,2.006-6.263,4.855-8.328,8.375
		c-0.733,1.543-1.146,3.268-1.146,5.09c0,0.43,0.021,0.85,0.062,1.213v0.023c0.083,1.6,0.612,3.086,1.45,4.303l0.011,0.021
		c0.594,0.986,1.529,1.75,2.673,2.136l-0.114-0.025c1.382,0.381,2.843,0.582,4.347,0.582c2.375,0,4.635-0.506,6.566-1.375
		l0.119-0.043c3.414-1.414,6.29-3.854,8.292-7.008c1.899-2.857,3.077-6.234,3.271-9.927c0.034-0.42,0.052-0.848,0.052-1.276
		c0-2.418-0.55-4.707-1.49-6.657v-0.181l6.472-3.777c-0.792,2.425-1.343,4.963-1.617,7.731v-0.037
		c-0.011,0.25-0.019,0.502-0.019,0.756c0,1.973,0.339,3.865,0.93,5.502l0.018,0.076c0.481,1.796,1.414,3.402,2.668,4.689
		c0.626,0.563,1.453,0.909,2.363,0.909c0.086,0,0.172,0,0.248-0.006c0.011,0,0.018,0,0.029,0c1.154,0,2.198-0.481,2.939-1.26
		c0.715-0.98,1.356-2.021,1.979-3.24c0.946-1.893,1.894-3.961,2.84-6.203l-0.322,2.248v-0.02c-0.003,0.131-0.003,0.26-0.003,0.389
		c0,1.469,0.202,2.891,0.547,4.129c0.47,1.678,1.366,2.519,2.688,2.519c1.321,0,2.7-1.14,4.138-3.414l0.36-0.541
		c1.205-1.918,2.704-4.679,4.497-8.275c1.201-2.398,2.521-5.276,3.958-8.633l1.8-4.318l0.18,1.261c0.241,1.076,0.54,2.215,0.9,3.414
		l0.051,0.174c0.441,1.295,0.993,2.544,1.568,3.602l0.716,1.619l-3.958,5.033l0.047-0.054c-1.507,1.677-2.923,3.432-4.361,5.445
		c-0.131,0.275-0.205,0.585-0.205,0.91c0,0.643,0.288,1.219,0.745,1.611l-0.036-0.015c0.764,0.363,1.616,0.568,2.516,0.568
		c0.141,0,0.28-0.008,0.398-0.016h0.032c1.544-0.078,3.016-0.438,4.287-0.988l0.215-0.09c1.221-0.563,2.396-1.191,3.383-1.802
		l0.025-0.018c2.064-1.471,3.411-3.883,3.411-6.609c0-0.2-0.008-0.401-0.021-0.571l-0.007-0.09c-0.202-1.778-0.647-3.48-1.253-4.949
		l0.54-0.898c1.438-2.157,2.938-4.675,4.498-7.554l1.8-3.415l0.18,1.259c0.24,1.077,0.539,2.215,0.899,3.415l0.051,0.166
		c0.485,1.364,1.09,2.67,1.749,3.793l0.354,0.525l-0.04,0.033c-1.437,1.201-2.735,2.558-3.919,4.104l0.021-0.024
		C95.252,90.871,94.521,92.184,94,93.7c-1.197,3.48-0.657,5.459,1.619,5.938h-0.019c0.115,0.006,0.23,0.01,0.35,0.01
		c1.021,0,1.989-0.234,2.813-0.637l0.126-0.043c1.356-0.541,2.631-1.234,3.746-2.027l0.04-0.021c2.429-1.475,4.063-4.118,4.12-7.159
		V89.74c-0.048-1.481-0.375-2.894-0.896-4.114c2.492-0.953,5.19-1.48,8.018-1.48c1.107,0,2.194,0.079,3.138,0.22l0.059,0.003
		c2.771,0.229,5.348,1.134,7.495,2.516l0.036,0.021c1.436,0.967,2.601,2.305,3.38,3.934c0.461,0.926,0.724,1.971,0.724,3.076
		c0,0.181-0.008,0.355-0.02,0.508l-0.011,0.048c-0.429,1.875-1.604,3.465-3.231,4.45c-0.601,0.359-0.869,0.689-0.81,0.988
		c0.06,0.301,0.389,0.391,0.989,0.271l0.055-0.019c1.068-0.389,2.029-1,2.824-1.781l0.007-0.006c1.454-1.289,2.4-3.127,2.512-5.211
		v0.021c0.009-0.146,0.012-0.299,0.012-0.449c0-2.087-0.642-4.027-1.717-5.596L129.327,87.089z M37.91,106.499l-0.02-0.024
		l-0.011,0.012c-1.439,1.578-3.249,2.813-5.387,3.59l0.032-0.014c-0.737,0.375-1.576,0.584-2.462,0.584
		c-0.81,0-1.583-0.178-2.24-0.48c-1.08-0.658-1.351-2.098-0.811-4.317l0.022-0.088c0.632-2.344,1.92-4.419,3.664-6.023
		c2.293-2.113,4.823-3.973,7.75-5.641l2.877-1.799c0.404,1.33,0.627,2.742,0.627,4.206C41.954,100.387,40.411,103.915,37.91,106.499
		z M63.988,84.354c-0.72,2.159-1.379,4.018-1.979,5.577h-0.007c-0.132,0.353-0.376,0.954-0.734,1.804l-0.05,0.193
		c-0.547,1.811-1.281,3.536-2.105,5.022c-0.852,1.922-1.602,2.791-2.25,2.609c-0.647-0.183-1.03-1.474-1.15-3.869v0.043
		c-0.015-0.301-0.022-0.604-0.022-0.91c0-2.268,0.403-4.443,1.099-6.326l0.032-0.122c0.429-1.454,1.045-2.824,1.771-4.016
		l0.065-0.122c0.633-1.112,1.346-2.17,2.094-3.116l0.011-0.015c0.669-0.816,1.507-1.482,2.508-1.968
		c0.84-0.357,1.41-0.298,1.709,0.18S64.948,81.475,63.988,84.354z M86.466,93.175l-0.006,0.027c-0.244,2.789-2,5.146-4.493,6.267
		v0.004c-0.605,0.356-0.965,0.477-1.08,0.358c-0.051-0.043-0.086-0.106-0.086-0.18s0.035-0.137,0.09-0.18l3.595-3.959l1.98-2.519
		V93.175z M102.115,89.888c0,2.919-1.958,5.382-4.68,6.158l-0.011-0.006c-0.477-0.356-0.175-1.612,0.907-3.771l0.039-0.082
		c0.832-1.682,1.979-3.17,3.379-4.415c0.203,0.625,0.329,1.282,0.364,1.982C102.115,89.8,102.115,89.844,102.115,89.888z"/>
	<path fill="#3492D0" d="M81.42,33.55c0.003,0.002,0.005,0.004,0.008,0.005c0.052,0.024,0.105,0.046,0.157,0.071L81.42,33.55z"/>
	<path fill="#3492D0" d="M22.418,77.689c-0.008-0.007-0.017-0.017-0.024-0.023c-0.021-0.019-0.044-0.037-0.064-0.056L22.418,77.689z
		"/>
</g>
<rect x="15.526" y="128.89" fill="#3492D0" width="116" height="50.667"/>
<g>
	<path fill="#566181" d="M30.008,167.594c1.989,1.224,4.896,2.243,7.955,2.243c4.539,0,7.19-2.396,7.19-5.864
		c0-3.212-1.836-5.048-6.477-6.833c-5.609-1.989-9.077-4.896-9.077-9.74c0-5.354,4.437-9.332,11.117-9.332
		c3.519,0,6.068,0.816,7.598,1.683l-1.224,3.621c-1.122-0.612-3.417-1.632-6.527-1.632c-4.692,0-6.477,2.805-6.477,5.15
		c0,3.213,2.091,4.794,6.833,6.629c5.813,2.244,8.771,5.049,8.771,10.098c0,5.303-3.927,9.893-12.035,9.893
		c-3.315,0-6.936-0.969-8.771-2.192L30.008,167.594z"/>
	<path fill="#566181" d="M63.31,172.999l-11.219-34.37h4.793l5.354,16.93c1.479,4.641,2.753,8.822,3.671,12.851h0.102
		c0.969-3.978,2.397-8.312,3.927-12.8l5.813-16.98h4.742l-12.29,34.37H63.31z"/>
	<path fill="#566181" d="M110.382,171.469c-1.988,0.714-5.916,1.888-10.555,1.888c-5.203,0-9.486-1.326-12.852-4.539
		c-2.957-2.855-4.793-7.445-4.793-12.8c0.051-10.25,7.088-17.746,18.613-17.746c3.977,0,7.088,0.867,8.566,1.581l-1.07,3.62
		c-1.836-0.815-4.131-1.479-7.6-1.479c-8.363,0-13.818,5.201-13.818,13.819c0,8.721,5.252,13.871,13.258,13.871
		c2.906,0,4.896-0.408,5.916-0.918v-10.25h-6.986v-3.569h11.32V171.469z"/>
</g>
<rect x="4.906" y="51.554" fill="#566181" width="130.667" height="69.956"/>
<rect x="15.526" y="27.51" fill="#566181" width="77.203" height="39.215"/>
<g>
	<rect x="103.139" y="56.076" fill="none" width="4.883" height="4.884"/>
	<rect x="29.878" y="56.076" fill="none" width="4.884" height="4.884"/>
	<rect x="29.878" y="97.591" fill="none" width="4.884" height="4.885"/>
	<rect x="103.139" y="97.591" fill="none" width="4.883" height="4.885"/>
	<rect x="66.508" y="56.076" fill="none" width="4.885" height="4.884"/>
	<path fill="#3492D0" d="M112.906,65.845V51.193H98.254v4.884H76.276v-4.884H61.624v4.884H39.647v-4.884H24.994v14.652h14.652
		v-4.884h10.419c-11.417,6.342-19.224,18.222-20.075,31.746h-4.997v14.653h14.652V92.707h-4.771
		c1.082-15.063,12.045-27.729,26.749-30.944v4.083h14.651v-4.083c14.705,3.215,25.668,15.881,26.75,30.944h-4.771v14.653h14.652
		V92.707h-4.996c-0.852-13.524-8.658-25.404-20.076-31.746h10.42v4.884H112.906z M103.139,56.076h4.883v4.884h-4.883V56.076z
		 M34.762,60.961h-4.884v-4.884h4.884V60.961z M34.762,102.475h-4.884v-4.885h4.884V102.475z M71.393,60.961h-4.885v-4.884h4.885
		V60.961z M103.139,97.591h4.883v4.885h-4.883V97.591z"/>
</g>
</svg>
