<?xml version="1.0" encoding="utf-8"?>
<!-- Generator: Adobe Illustrator 16.0.0, SVG Export Plug-In . SVG Version: 6.00 Build 0)  -->
<!DOCTYPE svg PUBLIC "-//W3C//DTD SVG 1.1//EN" "http://www.w3.org/Graphics/SVG/1.1/DTD/svg11.dtd">
<svg version="1.1" id="Calque_1" xmlns="http://www.w3.org/2000/svg" xmlns:xlink="http://www.w3.org/1999/xlink" x="0px" y="0px"
	 width="140.811px" height="182.021px" viewBox="0 0 140.811 182.021" enable-background="new 0 0 140.811 182.021"
	 xml:space="preserve">
<g>
	<polygon fill="#566181" points="140.81,48.085 92.729,0 0,0 0,182.021 140.81,182.021 	"/>
	<polygon fill="#3E4552" points="92.729,0 92.729,48.085 140.81,48.085 	"/>
</g>
<path fill="#3492D0" d="M100.065,78.341c-2.67,0-4.841-2.171-4.841-4.841v-9.681c0-4.003-3.258-7.261-7.261-7.261
	c-1.339,0-2.421,1.085-2.421,2.42c0,1.336,1.082,2.421,2.421,2.421c1.336,0,2.42,1.087,2.42,2.42V73.5
	c0,2.904,1.313,5.484,3.346,7.262c-2.033,1.775-3.346,4.355-3.346,7.261v9.681c0,1.334-1.084,2.42-2.42,2.42
	c-1.339,0-2.421,1.085-2.421,2.421s1.082,2.42,2.421,2.42c4.003,0,7.261-3.258,7.261-7.261v-9.681c0-2.67,2.171-4.841,4.841-4.841
	c1.338,0,2.42-1.084,2.42-2.42C102.485,79.425,101.403,78.341,100.065,78.341z"/>
<path fill="#3492D0" d="M38.18,80.761c0,1.336,1.082,2.42,2.42,2.42c2.67,0,4.841,2.171,4.841,4.841v9.681
	c0,4.003,3.257,7.261,7.26,7.261c1.339,0,2.421-1.084,2.421-2.42s-1.082-2.421-2.421-2.421c-1.336,0-2.42-1.086-2.42-2.42v-9.681
	c0-2.904-1.312-5.484-3.345-7.261c2.033-1.776,3.345-4.356,3.345-7.262v-9.681c0-1.333,1.084-2.42,2.42-2.42
	c1.339,0,2.421-1.085,2.421-2.421c0-1.335-1.082-2.42-2.421-2.42c-4.003,0-7.26,3.258-7.26,7.261V73.5
	c0,2.67-2.171,4.841-4.841,4.841C39.262,78.341,38.18,79.425,38.18,80.761z"/>
<rect x="0" y="126.427" fill="#3492D0" width="140.811" height="55.594"/>
<rect x="66.78" y="68.76" fill="none" width="7.25" height="24.5"/>
<rect x="47.28" y="134.349" fill="none" width="47.5" height="39.75"/>
<text transform="matrix(1 0 0 1 47.28 173.3992)" fill="#566181" font-family="'MyriadPro-Regular'" font-size="55">JS</text>
</svg>
