<?xml version="1.0" encoding="utf-8"?>
<!-- Generator: Adobe Illustrator 16.0.0, SVG Export Plug-In . SVG Version: 6.00 Build 0)  -->
<!DOCTYPE svg PUBLIC "-//W3C//DTD SVG 1.1//EN" "http://www.w3.org/Graphics/SVG/1.1/DTD/svg11.dtd">
<svg version="1.1" id="Calque_1" xmlns="http://www.w3.org/2000/svg" xmlns:xlink="http://www.w3.org/1999/xlink" x="0px" y="0px"
	 width="140.811px" height="182.021px" viewBox="0 0 140.811 182.021" enable-background="new 0 0 140.811 182.021"
	 xml:space="preserve">
<g>
	<path fill="#566181" d="M38.45,94.094c-2.926,1.668-5.458,3.527-7.75,5.641c-1.744,1.605-3.032,3.681-3.664,6.023l-0.022,0.088
		c-0.54,2.221-0.27,3.66,0.81,4.318c0.658,0.303,1.432,0.48,2.241,0.48c0.885,0,1.724-0.209,2.462-0.584l-0.033,0.014
		c2.138-0.775,3.948-2.012,5.387-3.59l0.011-0.012l0.019,0.025c2.501-2.584,4.044-6.111,4.044-9.996
		c0-1.464-0.222-2.876-0.627-4.206L38.45,94.094z"/>
	<path fill="#566181" d="M92.729,48.085V0H0v126.428H140.81V48.085H92.729z M131.064,93.184v-0.021
		c-0.111,2.084-1.058,3.922-2.512,5.211l-0.007,0.006c-0.795,0.781-1.756,1.393-2.824,1.781l-0.055,0.018
		c-0.601,0.121-0.93,0.031-0.989-0.27c-0.061-0.299,0.209-0.629,0.81-0.988c1.627-0.986,2.803-2.576,3.231-4.451l0.011-0.047
		c0.011-0.152,0.019-0.328,0.019-0.508c0-1.105-0.262-2.15-0.723-3.076c-0.78-1.628-1.945-2.966-3.38-3.934l-0.036-0.021
		c-2.148-1.382-4.725-2.289-7.496-2.516l-0.058-0.003c-0.942-0.141-2.029-0.22-3.138-0.22c-2.826,0-5.524,0.529-8.017,1.481
		c0.521,1.22,0.848,2.632,0.896,4.114v0.019c-0.059,3.041-1.691,5.685-4.12,7.16l-0.04,0.021c-1.115,0.793-2.39,1.486-3.746,2.027
		l-0.126,0.043c-0.824,0.402-1.793,0.637-2.814,0.637c-0.118,0-0.233-0.004-0.349-0.01h0.018C93.343,99.159,92.802,97.18,94,93.7
		c0.521-1.516,1.252-2.829,2.178-3.984l-0.022,0.024c1.184-1.547,2.483-2.903,3.919-4.105l0.04-0.033l-0.353-0.525
		c-0.659-1.123-1.264-2.43-1.749-3.793l-0.051-0.166c-0.36-1.2-0.659-2.338-0.899-3.415l-0.18-1.259l-1.8,3.415
		c-1.559,2.879-3.059,5.396-4.498,7.554l-0.54,0.898c0.605,1.469,1.051,3.171,1.253,4.949l0.007,0.09
		c0.015,0.17,0.021,0.371,0.021,0.572c0,2.727-1.346,5.139-3.411,6.609l-0.025,0.018c-0.986,0.609-2.162,1.238-3.383,1.801
		l-0.215,0.09c-1.271,0.551-2.743,0.91-4.287,0.988h-0.032c-0.118,0.008-0.259,0.016-0.399,0.016c-0.898,0-1.752-0.205-2.515-0.568
		l0.036,0.014c-0.457-0.393-0.745-0.969-0.745-1.611c0-0.325,0.074-0.635,0.205-0.91c-0.001,0.002-0.003,0.004-0.004,0.006
		l0.007-0.014c-0.001,0.003-0.002,0.006-0.003,0.008c1.438-2.015,2.854-3.77,4.361-5.445l-0.047,0.053l3.958-5.033l-0.715-1.619
		c-0.576-1.058-1.127-2.307-1.569-3.602l-0.051-0.173c-0.36-1.199-0.659-2.337-0.9-3.415l-0.18-1.26l-1.799,4.318
		c-1.438,3.357-2.757,6.234-3.958,8.633c-1.793,3.598-3.292,6.357-4.498,8.275l-0.36,0.541c-1.437,2.275-2.816,3.414-4.138,3.414
		s-2.218-0.84-2.688-2.518c-0.346-1.238-0.547-2.66-0.547-4.129c0-0.129,0-0.258,0.003-0.389v0.018l0.322-2.248
		c-0.947,2.242-1.894,4.311-2.84,6.203c-0.624,1.219-1.265,2.26-1.979,3.24h0l-0.047,0.066c0.016-0.021,0.031-0.044,0.046-0.066
		c-0.741,0.777-1.785,1.26-2.94,1.26c-0.011,0-0.018,0-0.029,0c-0.076,0.006-0.162,0.006-0.248,0.006
		c-0.91,0-1.737-0.346-2.363-0.909c0.001,0.001,0.001,0.002,0.002,0.003l-0.004-0.004c0,0,0.001,0.001,0.001,0.001
		c-1.254-1.288-2.187-2.895-2.668-4.69l-0.018-0.076c-0.59-1.637-0.929-3.529-0.929-5.502c0-0.254,0.007-0.506,0.018-0.756v0.037
		c0.275-2.769,0.825-5.307,1.617-7.731l-6.471,3.777v0.181c0.939,1.95,1.49,4.239,1.49,6.657c0,0.43-0.019,0.856-0.052,1.276
		c0-0.007,0.001-0.015,0.002-0.022l-0.003,0.059c0.001-0.012,0-0.023,0.001-0.036c-0.194,3.692-1.372,7.069-3.271,9.927
		c0.011-0.018,0.023-0.033,0.035-0.051l-0.047,0.07c0.004-0.006,0.008-0.013,0.012-0.02c-2.003,3.154-4.878,5.594-8.292,7.008
		l-0.119,0.043c-1.932,0.869-4.192,1.375-6.567,1.375c-1.504,0-2.965-0.201-4.347-0.582l0.115,0.025
		c-1.144-0.385-2.08-1.148-2.673-2.135l-0.011-0.021c-0.838-1.217-1.368-2.703-1.45-4.303v-0.023
		c-0.04-0.363-0.062-0.783-0.062-1.213c0-1.822,0.414-3.547,1.147-5.09c-0.002,0.003-0.004,0.006-0.006,0.01l0.032-0.072
		c-0.01,0.021-0.016,0.042-0.026,0.063c2.065-3.519,4.919-6.369,8.328-8.375l0.108-0.057c2.415-1.674,5.189-3.297,8.086-4.71
		l0.381-0.169l0.9-0.541c-1.08-0.839-3.059-2.278-5.938-4.318c-3.821-2.559-7.144-5.144-10.277-7.937
		c0.008,0.007,0.016,0.016,0.024,0.023l-0.09-0.079c0.021,0.019,0.044,0.037,0.065,0.056c-3.035-2.621-5.247-6.116-6.241-10.096
		l-0.029-0.137c-0.093-0.554-0.147-1.191-0.147-1.839c0-2.03,0.522-3.937,1.436-5.596l-0.029,0.061
		c2.016-4.333,4.808-7.985,8.233-10.921l0.043-0.036c3.707-3.502,7.902-6.549,12.458-9.019l0.313-0.154
		c4.07-2.35,8.824-4.534,13.779-6.287l0.612-0.187c4.603-1.684,9.917-2.67,15.459-2.688h0.007c0.252-0.007,0.551-0.015,0.849-0.015
		c4.404,0,8.573,1.008,12.29,2.8c-0.003-0.001-0.005-0.002-0.008-0.004l0.165,0.076c-0.052-0.025-0.105-0.047-0.157-0.072
		c3.235,1.477,5.658,4.252,6.628,7.647l0.021,0.086c0.299,1.159,0.468,2.49,0.468,3.861c0,2.236-0.46,4.364-1.279,6.303
		c0-0.001,0.001-0.001,0.001-0.002l-0.039,0.104c0.015-0.033,0.024-0.069,0.038-0.103c-1.539,3.731-3.729,6.908-6.465,9.523
		l-0.011,0.011c-2.771,2.746-6.093,4.941-9.781,6.406l-0.197,0.068c-3.865,1.659-8.353,2.702-13.063,2.875l-0.068,0.003
		c-0.691,0.079-1.49,0.123-2.3,0.123c-2.13,0-4.185-0.306-6.128-0.878l0.155,0.039c-1.738-0.554-3.238-1.414-4.513-2.529
		l0.015,0.011c-0.893-0.727-1.62-1.623-2.138-2.642l-0.021-0.046c-0.36-0.96-0.39-1.529-0.09-1.709c0.3-0.18,0.51-0.21,0.63-0.09
		l0.9,0.899c1.004,0.932,2.202,1.666,3.526,2.134l0.072,0.021c1.821,0.633,3.922,1,6.106,1c0.676,0,1.342-0.035,1.998-0.105
		c5.781-0.683,10.996-2.65,15.503-5.603c3.809-2.276,6.895-5.396,9.067-9.114l0.064-0.122c1.083-1.591,1.73-3.555,1.73-5.671
		c0-1.275-0.239-2.497-0.669-3.624c-1.346-2.125-3.521-3.62-6.061-4.034l-0.05-0.007c-1.972-0.486-4.239-0.767-6.567-0.767
		c-1.875,0-3.71,0.18-5.484,0.525l0.18-0.029c-6.071,1.094-11.497,2.969-16.502,5.545l0.327-0.154
		c-14.749,7.437-22.365,15.052-22.847,22.847v0.176c0,3.14,1.234,5.992,3.243,8.101c2.292,2.547,4.826,4.796,7.593,6.739l0.14,0.094
		c2.523,1.886,4.754,3.833,6.83,5.935l0.003,0.007l0.36,0.36l11.516-6.294c1.313-1.9,2.893-3.505,4.707-4.801l0.057-0.04
		c1.439-1.209,3.268-1.997,5.272-2.155l0.033-0.003c0.072-0.007,0.154-0.007,0.241-0.007c1.342,0,2.494,0.81,2.99,1.968l0.007,0.021
		c0.378,0.846,0.597,1.835,0.597,2.875c0,0.308-0.022,0.611-0.059,0.912l0.001-0.008l-0.003,0.036c0.001-0.009,0-0.019,0.002-0.028
		l-0.348,1.766l0.54-0.36c0.374-0.284,0.846-0.454,1.356-0.454c0.324,0,0.63,0.069,0.907,0.191l-0.015-0.007
		c0.691,0.18,1.191,0.799,1.191,1.533c0,0.126-0.015,0.249-0.043,0.367l0.004-0.011l-0.541,1.979
		c-1.079,4.316-1.797,7.433-2.155,9.353c-0.18,0.623-0.28,1.338-0.28,2.08c0,0.154,0.003,0.307,0.014,0.457v-0.021
		c0.06,0.719,0.15,1.08,0.27,1.08s0.359-0.361,0.716-1.08l0.54-1.26c0.046,0,0.059,0.017,0.069,0.035l1.91-3.994
		c4.678-10.31,7.195-16.067,7.553-17.272l1.08-3.415c0.12-0.24,0.6-0.479,1.439-0.716c0.853-0.23,1.828-0.363,2.836-0.363
		c0.082,0,0.164,0,0.244,0.003h-0.01c1.679,0,2.518,0.42,2.518,1.26l-0.18,0.9c-0.402,1.108-0.803,2.494-1.111,3.911l-0.039,0.227
		c-0.072,0.464-0.115,0.997-0.115,1.544c0,0.727,0.07,1.436,0.211,2.124l-0.01-0.068l0.18,0.716c0.361,1.475,0.907,2.772,1.62,3.957
		c1.437-2.396,2.815-4.854,4.138-7.372c1.043-1.738,2.014-3.753,2.796-5.862l0.082-0.252c0.271-1.357,0.58-2.501,0.958-3.617
		l-0.059,0.202c0.12-0.36,0.633-0.629,1.537-0.81c0.856-0.173,1.839-0.27,2.844-0.27h0.121h0.008h-0.008
		c1.68,0,2.576,0.42,2.688,1.26l-0.359,0.716c-0.429,1.209-0.803,2.663-1.055,4.157l-0.021,0.162
		c-0.033,0.349-0.055,0.752-0.055,1.163c0,0.86,0.087,1.702,0.249,2.515l-0.015-0.083v0.716c0.414,1.569,1.029,2.947,1.835,4.196
		l-0.035-0.058l0.539,1.259c3.005-1.475,6.539-2.339,10.273-2.339h0.134h0.008h-0.008l-0.003,0.011
		c0.14-0.004,0.306-0.007,0.475-0.007c3,0,5.839,0.698,8.358,1.943l-0.111-0.05c2.296,1.119,4.182,2.774,5.546,4.804l0.032,0.05
		c1.075,1.569,1.716,3.508,1.716,5.596C131.075,92.885,131.072,93.038,131.064,93.184z"/>
	<path fill="#566181" d="M98.372,92.188l-0.039,0.082c-1.082,2.158-1.384,3.414-0.907,3.771l0.011,0.006
		c2.721-0.777,4.679-3.24,4.679-6.159c0-0.044,0-0.088,0-0.132c-0.035-0.701-0.161-1.358-0.364-1.983
		C100.352,89.018,99.204,90.508,98.372,92.188z"/>
	<path fill="#566181" d="M80.89,99.471c-0.055,0.043-0.09,0.107-0.09,0.18s0.035,0.137,0.086,0.18
		c0.115,0.117,0.475-0.002,1.08-0.359v-0.004c2.493-1.119,4.249-3.477,4.493-6.266l0.006-0.027v-0.18l-1.98,2.518L80.89,99.471z"/>
	<path fill="#566181" d="M63.268,79.14c-1,0.486-1.839,1.152-2.508,1.968l-0.011,0.015c-0.748,0.946-1.46,2.004-2.094,3.116
		l-0.065,0.122c-0.727,1.191-1.342,2.562-1.771,4.016l-0.033,0.122c-0.694,1.882-1.098,4.058-1.098,6.326
		c0,0.307,0.007,0.609,0.022,0.91v-0.043c0.12,2.396,0.503,3.688,1.151,3.869s1.397-0.688,2.25-2.609
		c0.824-1.486,1.558-3.213,2.105-5.023l0.05-0.193c0.357-0.85,0.602-1.451,0.734-1.804h0.007c0.6-1.56,1.259-3.418,1.979-5.577
		c0.959-2.879,1.29-4.557,0.99-5.034C64.678,78.843,64.108,78.782,63.268,79.14z"/>
	<polygon fill="#3E4552" points="140.81,48.085 92.729,0 92.729,48.085 	"/>
	<path fill="#3492D0" d="M0,182.021H140.81v-55.594H0V182.021z M111.792,156.331c-5.846-2.072-9.459-5.101-9.459-10.147
		c0-5.579,4.623-9.724,11.584-9.724c3.666,0,6.322,0.851,7.918,1.753l-1.277,3.771c-1.168-0.638-3.561-1.7-6.801-1.7
		c-4.889,0-6.748,2.923-6.748,5.368c0,3.345,2.178,4.995,7.119,6.906c6.059,2.339,9.141,5.261,9.141,10.522
		c0,5.523-4.092,10.307-12.541,10.307c-3.453,0-7.225-1.01-9.137-2.285l1.168-3.88c2.072,1.276,5.1,2.339,8.287,2.339
		c4.73,0,7.492-2.498,7.492-6.111C118.538,160.102,116.626,158.192,111.792,156.331z M85.583,156.331
		c-5.846-2.072-9.459-5.101-9.459-10.147c0-5.579,4.621-9.724,11.582-9.724c3.668,0,6.324,0.851,7.918,1.753l-1.275,3.771
		c-1.17-0.638-3.559-1.7-6.801-1.7c-4.887,0-6.748,2.923-6.748,5.368c0,3.345,2.18,4.995,7.119,6.906
		c6.057,2.339,9.141,5.261,9.141,10.522c0,5.523-4.092,10.307-12.541,10.307c-3.453,0-7.226-1.01-9.138-2.285l1.169-3.88
		c2.072,1.276,5.1,2.339,8.288,2.339c4.729,0,7.491-2.498,7.491-6.111C92.329,160.102,90.417,158.192,85.583,156.331z
		 M62.929,136.46c4.465,0,7.28,0.957,8.502,1.595l-1.117,3.77c-1.752-0.848-4.251-1.484-7.225-1.484
		c-8.396,0-13.975,5.366-13.975,14.769c0,8.769,5.046,14.4,13.762,14.4c2.816,0,5.686-0.586,7.545-1.487l0.957,3.667
		c-1.701,0.849-5.102,1.699-9.458,1.699c-10.096,0-17.694-6.376-17.694-18.118C44.227,144.057,51.825,136.46,62.929,136.46z
		 M28.539,156.331c-5.845-2.072-9.458-5.101-9.458-10.147c0-5.579,4.622-9.724,11.583-9.724c3.666,0,6.323,0.851,7.917,1.753
		l-1.276,3.771c-1.169-0.638-3.56-1.7-6.802-1.7c-4.886,0-6.747,2.923-6.747,5.368c0,3.345,2.179,4.995,7.12,6.906
		c6.057,2.339,9.138,5.261,9.138,10.522c0,5.523-4.09,10.307-12.54,10.307c-3.452,0-7.225-1.01-9.137-2.285l1.168-3.88
		c2.072,1.276,5.1,2.339,8.289,2.339c4.728,0,7.491-2.498,7.491-6.111C35.286,160.102,33.374,158.192,28.539,156.331z"/>
	
		<line fill="none" stroke="#3492D0" stroke-width="0" stroke-linecap="round" stroke-linejoin="round" x1="100.884" y1="66.725" x2="100.891" y2="66.725"/>
	
		<line fill="none" stroke="#3492D0" stroke-width="0" stroke-linecap="round" stroke-linejoin="round" x1="115.062" y1="80.388" x2="115.07" y2="80.388"/>
	<path fill="#3492D0" d="M20.799,103.782c0.002-0.004,0.004-0.007,0.006-0.01c0.01-0.021,0.016-0.042,0.026-0.063L20.799,103.782z"
		/>
	<path fill="#3492D0" d="M58.929,105.233L58.929,105.233c-0.016,0.022-0.031,0.045-0.047,0.066L58.929,105.233z"/>
	<path fill="#3492D0" d="M43.099,108.637c-0.011,0.018-0.024,0.033-0.035,0.051c-0.004,0.007-0.008,0.014-0.012,0.02L43.099,108.637
		z"/>
	<polygon fill="#3492D0" points="53.351,105.593 53.349,105.59 53.347,105.589 	"/>
	<path fill="#3492D0" d="M46.338,98.739c0,0.008-0.001,0.016-0.002,0.022c-0.001,0.013,0,0.024-0.001,0.036L46.338,98.739z"/>
	<polygon fill="#3492D0" points="76.551,100.374 76.554,100.368 76.557,100.36 	"/>
	<path fill="#3492D0" d="M87.266,51.449c0,0-0.001,0.001-0.001,0.002c-0.014,0.033-0.023,0.069-0.038,0.103L87.266,51.449z"/>
	<path fill="#3492D0" d="M68.115,80.238l-0.001,0.008c-0.001,0.009-0.001,0.019-0.002,0.028L68.115,80.238z"/>
	<path fill="#3492D0" d="M129.327,87.089c-1.364-2.03-3.25-3.685-5.546-4.804l0.111,0.05c-2.52-1.245-5.358-1.943-8.358-1.943
		c-0.169,0-0.335,0.003-0.475,0.007l0.003-0.011h-0.134c-3.734,0-7.269,0.864-10.273,2.339l-0.539-1.259l0.035,0.058
		c-0.806-1.249-1.421-2.627-1.835-4.196v-0.716l0.015,0.083c-0.162-0.813-0.249-1.655-0.249-2.515c0-0.411,0.021-0.813,0.055-1.163
		l0.021-0.162c0.252-1.494,0.626-2.948,1.055-4.157l0.359-0.716c-0.112-0.84-1.009-1.26-2.688-1.26h-0.121
		c-1.005,0-1.987,0.097-2.844,0.27c-0.904,0.18-1.417,0.45-1.537,0.81l0.059-0.202c-0.378,1.116-0.688,2.26-0.958,3.617L95.4,71.471
		c-0.782,2.109-1.753,4.124-2.796,5.862c-1.322,2.519-2.701,4.976-4.138,7.372c-0.713-1.185-1.259-2.482-1.62-3.957l-0.18-0.716
		l0.01,0.068c-0.141-0.688-0.211-1.396-0.211-2.124c0-0.547,0.043-1.08,0.115-1.544l0.039-0.227
		c0.309-1.417,0.709-2.803,1.111-3.911l0.18-0.9c0-0.839-0.839-1.26-2.518-1.26h0.01c-0.08-0.003-0.162-0.003-0.244-0.003
		c-1.008,0-1.983,0.133-2.836,0.363c-0.84,0.238-1.319,0.477-1.439,0.716l-1.08,3.415c-0.357,1.205-2.875,6.962-7.553,17.272
		l-1.91,3.994c-0.011-0.019-0.023-0.035-0.069-0.035l-0.54,1.26c-0.357,0.719-0.596,1.08-0.716,1.08s-0.21-0.361-0.27-1.08v0.021
		c-0.011-0.15-0.014-0.303-0.014-0.457c0-0.742,0.101-1.457,0.28-2.08c0.358-1.92,1.076-5.037,2.155-9.353l0.541-1.979l-0.004,0.011
		c0.028-0.119,0.043-0.241,0.043-0.367c0-0.734-0.5-1.353-1.191-1.533l0.015,0.007c-0.277-0.122-0.583-0.191-0.907-0.191
		c-0.511,0-0.982,0.169-1.356,0.454l-0.54,0.36l0.348-1.766c0.037-0.301,0.059-0.604,0.059-0.912c0-1.041-0.219-2.03-0.597-2.875
		l-0.007-0.021c-0.497-1.159-1.648-1.968-2.99-1.968c-0.086,0-0.169,0-0.241,0.007l-0.033,0.003
		c-2.004,0.159-3.833,0.946-5.272,2.155l-0.057,0.04c-1.814,1.296-3.394,2.901-4.707,4.801L42.753,87.77l-0.36-0.36l-0.003-0.007
		c-2.076-2.102-4.307-4.049-6.83-5.935l-0.14-0.094c-2.767-1.943-5.3-4.192-7.593-6.739c-2.009-2.109-3.243-4.961-3.243-8.101
		v-0.176c0.482-7.795,8.098-15.41,22.847-22.847l-0.327,0.154c5.005-2.576,10.432-4.451,16.502-5.545l-0.18,0.029
		c1.774-0.346,3.61-0.525,5.484-0.525c2.328,0,4.596,0.28,6.567,0.767l0.05,0.007c2.539,0.414,4.715,1.91,6.061,4.034
		c0.43,1.127,0.669,2.349,0.669,3.624c0,2.116-0.647,4.081-1.73,5.671l-0.064,0.122c-2.173,3.718-5.259,6.838-9.067,9.114
		c-4.507,2.953-9.722,4.919-15.503,5.603c-0.656,0.07-1.322,0.105-1.998,0.105c-2.184,0-4.286-0.367-6.106-1l-0.072-0.021
		c-1.324-0.468-2.522-1.202-3.526-2.134l-0.9-0.899c-0.12-0.12-0.33-0.09-0.63,0.09c-0.299,0.18-0.27,0.75,0.09,1.709l0.021,0.046
		c0.518,1.019,1.245,1.915,2.138,2.642l-0.015-0.011c1.274,1.116,2.774,1.976,4.513,2.529l-0.155-0.039
		c1.943,0.572,3.998,0.878,6.128,0.878c0.81,0,1.608-0.043,2.3-0.123l0.068-0.003c4.71-0.173,9.197-1.216,13.063-2.875l0.197-0.068
		c3.688-1.465,7.01-3.66,9.781-6.406l0.011-0.011c2.735-2.616,4.926-5.792,6.465-9.523c0.819-1.938,1.279-4.067,1.279-6.303
		c0-1.371-0.169-2.703-0.468-3.861l-0.021-0.086c-0.97-3.395-3.393-6.17-6.628-7.647c-3.717-1.792-7.886-2.8-12.29-2.8
		c-0.298,0-0.597,0.007-0.849,0.015h-0.007c-5.542,0.018-10.856,1.004-15.459,2.688l-0.612,0.187
		c-4.955,1.752-9.709,3.937-13.779,6.287l-0.313,0.154c-4.556,2.469-8.751,5.517-12.458,9.019l-0.043,0.036
		c-3.425,2.936-6.218,6.589-8.233,10.921l0.029-0.061c-0.914,1.659-1.436,3.566-1.436,5.596c0,0.648,0.054,1.285,0.147,1.839
		l0.029,0.137c0.994,3.979,3.206,7.475,6.241,10.096c3.133,2.792,6.456,5.377,10.277,7.937c2.878,2.04,4.857,3.479,5.938,4.318
		l-0.9,0.541l-0.381,0.169c-2.897,1.414-5.671,3.037-8.086,4.71l-0.108,0.057c-3.408,2.006-6.263,4.856-8.328,8.375
		c-0.734,1.543-1.147,3.268-1.147,5.09c0,0.43,0.022,0.85,0.062,1.213v0.023c0.083,1.6,0.612,3.086,1.45,4.303l0.011,0.021
		c0.594,0.986,1.529,1.75,2.673,2.135l-0.115-0.025c1.382,0.381,2.843,0.582,4.347,0.582c2.375,0,4.635-0.506,6.567-1.375
		l0.119-0.043c3.414-1.414,6.29-3.854,8.292-7.008c1.899-2.857,3.077-6.234,3.271-9.927c0.034-0.42,0.052-0.847,0.052-1.276
		c0-2.418-0.55-4.707-1.49-6.657v-0.181l6.471-3.777c-0.792,2.425-1.342,4.963-1.617,7.731v-0.037
		c-0.011,0.25-0.018,0.502-0.018,0.756c0,1.973,0.338,3.865,0.929,5.502l0.018,0.076c0.481,1.796,1.414,3.402,2.668,4.69
		c0.626,0.563,1.453,0.909,2.363,0.909c0.086,0,0.172,0,0.248-0.006c0.011,0,0.018,0,0.029,0c1.155,0,2.199-0.482,2.94-1.26
		c0.715-0.98,1.356-2.021,1.979-3.24c0.947-1.893,1.894-3.961,2.84-6.203l-0.322,2.248V98.02c-0.003,0.131-0.003,0.26-0.003,0.389
		c0,1.469,0.202,2.891,0.547,4.129c0.47,1.678,1.366,2.518,2.688,2.518s2.701-1.139,4.138-3.414l0.36-0.541
		c1.206-1.918,2.705-4.678,4.498-8.275c1.201-2.399,2.521-5.276,3.958-8.633l1.799-4.318l0.18,1.26
		c0.241,1.077,0.54,2.215,0.9,3.415l0.051,0.173c0.442,1.295,0.993,2.544,1.569,3.602l0.715,1.619l-3.958,5.033l0.047-0.053
		c-1.507,1.676-2.923,3.431-4.361,5.445c-0.131,0.275-0.205,0.585-0.205,0.91c0,0.643,0.288,1.219,0.745,1.611l-0.036-0.014
		c0.763,0.363,1.616,0.568,2.515,0.568c0.141,0,0.281-0.008,0.399-0.016h0.032c1.544-0.078,3.016-0.438,4.287-0.988l0.215-0.09
		c1.221-0.563,2.396-1.191,3.383-1.801l0.025-0.018c2.065-1.471,3.411-3.883,3.411-6.609c0-0.201-0.007-0.402-0.021-0.572
		l-0.007-0.09c-0.202-1.778-0.647-3.48-1.253-4.949l0.54-0.898c1.439-2.157,2.939-4.675,4.498-7.554l1.8-3.415l0.18,1.259
		c0.24,1.077,0.539,2.215,0.899,3.415l0.051,0.166c0.485,1.364,1.09,2.67,1.749,3.793l0.353,0.525l-0.04,0.033
		c-1.436,1.202-2.735,2.558-3.919,4.105l0.022-0.024C95.252,90.871,94.521,92.184,94,93.7c-1.197,3.48-0.657,5.459,1.619,5.938
		h-0.018c0.115,0.006,0.23,0.01,0.349,0.01c1.021,0,1.99-0.234,2.814-0.637l0.126-0.043c1.356-0.541,2.631-1.234,3.746-2.027
		l0.04-0.021c2.429-1.475,4.062-4.119,4.12-7.16V89.74c-0.048-1.481-0.375-2.894-0.896-4.114c2.492-0.953,5.19-1.481,8.017-1.481
		c1.108,0,2.195,0.079,3.138,0.22l0.058,0.003c2.771,0.228,5.348,1.134,7.496,2.516l0.036,0.021c1.435,0.967,2.6,2.305,3.38,3.934
		c0.461,0.925,0.723,1.97,0.723,3.076c0,0.18-0.008,0.355-0.019,0.508l-0.011,0.047c-0.429,1.875-1.604,3.465-3.231,4.451
		c-0.601,0.359-0.87,0.689-0.81,0.988c0.06,0.301,0.389,0.391,0.989,0.27l0.055-0.018c1.068-0.389,2.029-1,2.824-1.781l0.007-0.006
		c1.454-1.289,2.4-3.127,2.512-5.211v0.021c0.008-0.146,0.011-0.299,0.011-0.449c0-2.087-0.641-4.027-1.716-5.596L129.327,87.089z
		 M37.91,106.499l-0.019-0.025l-0.011,0.012c-1.439,1.578-3.249,2.814-5.387,3.59l0.033-0.014c-0.738,0.375-1.577,0.584-2.462,0.584
		c-0.81,0-1.583-0.178-2.241-0.48c-1.08-0.658-1.35-2.098-0.81-4.318l0.022-0.088c0.632-2.343,1.92-4.418,3.664-6.023
		c2.293-2.113,4.824-3.973,7.75-5.641l2.877-1.798c0.405,1.33,0.627,2.742,0.627,4.206C41.954,100.387,40.411,103.915,37.91,106.499
		z M63.988,84.354c-0.72,2.159-1.379,4.018-1.979,5.577h-0.007c-0.132,0.353-0.376,0.954-0.734,1.804l-0.05,0.193
		c-0.547,1.811-1.281,3.537-2.105,5.023c-0.852,1.922-1.602,2.791-2.25,2.609s-1.031-1.473-1.151-3.869v0.043
		c-0.015-0.301-0.022-0.604-0.022-0.91c0-2.268,0.403-4.443,1.098-6.326l0.033-0.122c0.428-1.454,1.044-2.825,1.771-4.016
		l0.065-0.122c0.633-1.112,1.346-2.17,2.094-3.116l0.011-0.015c0.669-0.816,1.507-1.482,2.508-1.968
		c0.84-0.357,1.41-0.297,1.709,0.18C65.278,79.797,64.948,81.475,63.988,84.354z M86.466,93.175l-0.006,0.027
		c-0.244,2.789-2,5.146-4.493,6.266v0.004c-0.605,0.357-0.965,0.477-1.08,0.359c-0.051-0.043-0.086-0.107-0.086-0.18
		s0.035-0.137,0.09-0.18l3.595-3.959l1.98-2.518V93.175z M102.115,89.888c0,2.919-1.958,5.382-4.679,6.159l-0.011-0.006
		c-0.477-0.357-0.175-1.613,0.907-3.771l0.039-0.082c0.832-1.681,1.98-3.17,3.379-4.415c0.203,0.625,0.329,1.282,0.364,1.983
		C102.115,89.8,102.115,89.844,102.115,89.888z"/>
	<path fill="#3492D0" d="M81.42,33.55c0.003,0.001,0.005,0.003,0.008,0.004c0.052,0.025,0.105,0.046,0.157,0.072L81.42,33.55z"/>
	<path fill="#3492D0" d="M22.418,77.689c-0.008-0.007-0.016-0.016-0.024-0.023c-0.021-0.019-0.044-0.037-0.065-0.056L22.418,77.689z
		"/>
	<path fill="#566181" d="M27.795,169.561c-3.189,0-6.217-1.063-8.289-2.339l-1.168,3.88c1.912,1.275,5.685,2.285,9.137,2.285
		c8.45,0,12.54-4.783,12.54-10.307c0-5.262-3.081-8.184-9.138-10.522c-4.941-1.911-7.12-3.562-7.12-6.906
		c0-2.445,1.861-5.368,6.747-5.368c3.242,0,5.633,1.063,6.802,1.7l1.276-3.771c-1.594-0.902-4.25-1.753-7.917-1.753
		c-6.961,0-11.583,4.145-11.583,9.724c0,5.047,3.613,8.075,9.458,10.147c4.834,1.861,6.747,3.771,6.747,7.119
		C35.286,167.063,32.523,169.561,27.795,169.561z"/>
	<path fill="#566181" d="M61.921,173.387c4.356,0,7.757-0.851,9.458-1.699l-0.957-3.667c-1.86,0.901-4.729,1.487-7.545,1.487
		c-8.716,0-13.762-5.632-13.762-14.4c0-9.402,5.579-14.769,13.975-14.769c2.974,0,5.473,0.637,7.225,1.484l1.117-3.77
		c-1.222-0.638-4.037-1.595-8.502-1.595c-11.104,0-18.702,7.598-18.702,18.81C44.227,167.011,51.825,173.387,61.921,173.387z"/>
	<path fill="#566181" d="M84.838,169.561c-3.188,0-6.216-1.063-8.288-2.339l-1.169,3.88c1.912,1.275,5.685,2.285,9.138,2.285
		c8.449,0,12.541-4.783,12.541-10.307c0-5.262-3.084-8.184-9.141-10.522c-4.939-1.911-7.119-3.562-7.119-6.906
		c0-2.445,1.861-5.368,6.748-5.368c3.242,0,5.631,1.063,6.801,1.7l1.275-3.771c-1.594-0.902-4.25-1.753-7.918-1.753
		c-6.961,0-11.582,4.145-11.582,9.724c0,5.047,3.613,8.075,9.459,10.147c4.834,1.861,6.746,3.771,6.746,7.119
		C92.329,167.063,89.567,169.561,84.838,169.561z"/>
	<path fill="#566181" d="M111.046,169.561c-3.188,0-6.215-1.063-8.287-2.339l-1.168,3.88c1.912,1.275,5.684,2.285,9.137,2.285
		c8.449,0,12.541-4.783,12.541-10.307c0-5.262-3.082-8.184-9.141-10.522c-4.941-1.911-7.119-3.562-7.119-6.906
		c0-2.445,1.859-5.368,6.748-5.368c3.24,0,5.633,1.063,6.801,1.7l1.277-3.771c-1.596-0.902-4.252-1.753-7.918-1.753
		c-6.961,0-11.584,4.145-11.584,9.724c0,5.047,3.613,8.075,9.459,10.147c4.834,1.861,6.746,3.771,6.746,7.119
		C118.538,167.063,115.776,169.561,111.046,169.561z"/>
</g>
</svg>
