<?xml version="1.0" encoding="utf-8"?>
<!-- Generator: Adobe Illustrator 16.0.0, SVG Export Plug-In . SVG Version: 6.00 Build 0)  -->
<!DOCTYPE svg PUBLIC "-//W3C//DTD SVG 1.1//EN" "http://www.w3.org/Graphics/SVG/1.1/DTD/svg11.dtd">
<svg version="1.1" id="Calque_1" xmlns="http://www.w3.org/2000/svg" xmlns:xlink="http://www.w3.org/1999/xlink" x="0px" y="0px"
	 width="157.978px" height="200.594px" viewBox="0 0 157.978 200.594" enable-background="new 0 0 157.978 200.594"
	 xml:space="preserve">
<g>
	<polygon fill="#566181" points="157.978,66.659 109.896,18.573 17.168,18.573 17.168,200.594 157.978,200.594 	"/>
	<polygon fill="#3E4552" points="17.168,18.573 109.896,18.573 140.804,49.481 140.804,1.401 0,1.401 0,183.421 17.168,183.421 	"/>
	<g>
		<path fill="#3E4552" d="M44.643,90.691h85.864c1.891,0,3.429-1.532,3.429-3.433s-1.538-3.436-3.429-3.436H44.643
			c-1.895,0-3.427,1.535-3.427,3.436S42.748,90.691,44.643,90.691z"/>
		<path fill="#3E4552" d="M44.643,63.222h34.347c1.895,0,3.437-1.534,3.437-3.438c0-1.904-1.542-3.433-3.437-3.433H44.643
			c-1.895,0-3.427,1.529-3.427,3.433C41.215,61.688,42.748,63.222,44.643,63.222z"/>
		<path fill="#3E4552" d="M130.507,111.297H44.643c-1.895,0-3.427,1.533-3.427,3.442c0,1.89,1.533,3.432,3.427,3.432h85.864
			c1.891,0,3.429-1.542,3.429-3.432C133.936,112.83,132.397,111.297,130.507,111.297z"/>
		<path fill="#3E4552" d="M130.507,138.777H44.643c-1.895,0-3.427,1.523-3.427,3.432c0,1.9,1.533,3.434,3.427,3.434h85.864
			c1.891,0,3.429-1.533,3.429-3.434C133.936,140.301,132.397,138.777,130.507,138.777z"/>
		<path fill="#3E4552" d="M130.507,166.248H44.643c-1.895,0-3.427,1.542-3.427,3.442c0,1.899,1.533,3.433,3.427,3.433h85.864
			c1.891,0,3.429-1.533,3.429-3.433C133.936,167.79,132.397,166.248,130.507,166.248z"/>
	</g>
	<polygon fill="#3E4552" points="109.896,18.573 109.896,66.659 157.978,66.659 	"/>
</g>
</svg>
