<?xml version="1.0" encoding="utf-8"?>
<!-- Generator: Adobe Illustrator 16.0.0, SVG Export Plug-In . SVG Version: 6.00 Build 0)  -->
<!DOCTYPE svg PUBLIC "-//W3C//DTD SVG 1.1//EN" "http://www.w3.org/Graphics/SVG/1.1/DTD/svg11.dtd">
<svg version="1.1" id="Calque_1" xmlns="http://www.w3.org/2000/svg" xmlns:xlink="http://www.w3.org/1999/xlink" x="0px" y="0px"
	 width="140.811px" height="182.021px" viewBox="0 0 140.811 182.021" enable-background="new 0 0 140.811 182.021"
	 xml:space="preserve">
<g>
	<polygon fill="#566181" points="140.81,48.085 92.729,0 0,0 0,182.021 140.81,182.021 	"/>
	<polygon fill="#3E4552" points="92.729,0 92.729,48.085 140.81,48.085 	"/>
</g>
<path fill="#3492D0" d="M100.065,78.341c-2.67,0-4.841-2.171-4.841-4.841v-9.681c0-4.003-3.258-7.261-7.261-7.261
	c-1.339,0-2.421,1.085-2.421,2.42c0,1.336,1.082,2.421,2.421,2.421c1.336,0,2.42,1.087,2.42,2.42V73.5
	c0,2.904,1.313,5.484,3.346,7.263c-2.033,1.774-3.346,4.354-3.346,7.261v9.681c0,1.334-1.084,2.42-2.42,2.42
	c-1.339,0-2.421,1.085-2.421,2.421s1.082,2.42,2.421,2.42c4.003,0,7.261-3.258,7.261-7.261v-9.681c0-2.67,2.171-4.841,4.841-4.841
	c1.338,0,2.42-1.084,2.42-2.42C102.485,79.425,101.403,78.341,100.065,78.341z"/>
<path fill="#3492D0" d="M38.18,80.761c0,1.336,1.082,2.42,2.42,2.42c2.67,0,4.841,2.171,4.841,4.841v9.681
	c0,4.003,3.258,7.261,7.261,7.261c1.339,0,2.421-1.084,2.421-2.42s-1.082-2.421-2.421-2.421c-1.336,0-2.421-1.086-2.421-2.42v-9.681
	c0-2.904-1.312-5.484-3.345-7.261c2.033-1.776,3.345-4.356,3.345-7.263v-9.681c0-1.333,1.085-2.42,2.421-2.42
	c1.339,0,2.421-1.085,2.421-2.421c0-1.335-1.082-2.42-2.421-2.42c-4.003,0-7.261,3.258-7.261,7.261V73.5
	c0,2.67-2.171,4.841-4.841,4.841C39.262,78.341,38.18,79.425,38.18,80.761z"/>
<rect x="0" y="126.427" fill="#3492D0" width="140.811" height="55.594"/>
<rect x="66.78" y="68.76" fill="none" width="7.25" height="24.5"/>
<rect x="47.28" y="134.349" fill="none" width="47.5" height="39.75"/>
<g>
	<path fill="#566181" d="M21.881,135.377h4.871v25.253c0,10.026-4.927,13.104-11.422,13.104c-1.792,0-3.976-0.392-5.208-0.895
		l0.729-3.976c1.007,0.391,2.463,0.728,4.087,0.728c4.368,0,6.943-1.961,6.943-9.354V135.377z"/>
	<path fill="#566181" d="M34.203,167.182c2.183,1.345,5.375,2.464,8.735,2.464c4.983,0,7.895-2.633,7.895-6.438
		c0-3.528-2.016-5.545-7.112-7.505c-6.159-2.184-9.967-5.375-9.967-10.696c0-5.879,4.873-10.247,12.208-10.247
		c3.864,0,6.664,0.896,8.344,1.85l-1.345,3.976c-1.231-0.673-3.751-1.793-7.167-1.793c-5.152,0-7.112,3.08-7.112,5.654
		c0,3.528,2.296,5.264,7.504,7.281c6.383,2.463,9.631,5.543,9.631,11.087c0,5.823-4.312,10.862-13.215,10.862
		c-3.641,0-7.616-1.063-9.632-2.408L34.203,167.182z"/>
	<path fill="#566181" d="M94.737,153.855c0,12.991-7.895,19.878-17.523,19.878c-9.969,0-16.968-7.727-16.968-19.149
		c0-11.985,7.447-19.824,17.526-19.824C88.075,134.76,94.737,142.654,94.737,153.855z M65.452,154.469
		c0,8.065,4.368,15.289,12.039,15.289c7.729,0,12.096-7.111,12.096-15.68c0-7.504-3.92-15.344-12.038-15.344
		C69.485,138.734,65.452,146.182,65.452,154.469z"/>
	<path fill="#566181" d="M101.07,173.116v-37.739h5.318l12.097,19.092c2.801,4.426,4.985,8.402,6.775,12.268l0.113-0.059
		c-0.449-5.039-0.561-9.63-0.561-15.511v-15.79h4.593v37.739h-4.929l-11.982-19.148c-2.634-4.201-5.154-8.514-7.056-12.599
		l-0.17,0.055c0.282,4.759,0.393,9.294,0.393,15.565v16.127H101.07z"/>
</g>
</svg>
