<?xml version="1.0" encoding="utf-8"?>
<!-- Generator: Adobe Illustrator 16.0.0, SVG Export Plug-In . SVG Version: 6.00 Build 0)  -->
<!DOCTYPE svg PUBLIC "-//W3C//DTD SVG 1.1//EN" "http://www.w3.org/Graphics/SVG/1.1/DTD/svg11.dtd">
<svg version="1.1" id="Calque_1" xmlns="http://www.w3.org/2000/svg" xmlns:xlink="http://www.w3.org/1999/xlink" x="0px" y="0px"
	 width="140.811px" height="182.021px" viewBox="0 0 140.811 182.021" enable-background="new 0 0 140.811 182.021"
	 xml:space="preserve">
<g>
	<polygon fill="#566181" points="140.81,48.085 92.729,0 0,0 0,182.021 140.81,182.021 	"/>
	<polygon fill="#3E4552" points="92.729,0 92.729,48.085 140.81,48.085 	"/>
</g>
<rect x="0" y="126.427" fill="#3492D0" width="140.811" height="55.594"/>
<rect x="66.78" y="68.76" fill="none" width="7.25" height="24.5"/>
<rect x="47.28" y="134.349" fill="none" width="47.5" height="39.75"/>
<path fill="#3492D0" d="M70.405,50.552c-0.165,0-0.356,0-0.543,0c-7.532,0-14.877,0.818-21.941,2.371l0.673-0.126
	c-6.746,1.418-12.716,3.514-18.292,6.283l0.439-0.196c-4.729,2.278-8.734,5.328-12.022,9.029l-0.033,0.038
	c-2.67,2.92-4.336,6.798-4.421,11.06v0.019c0.089,4.275,1.75,8.145,4.426,11.073l-0.009-0.015c3.322,3.738,7.327,6.788,11.831,8.969
	l0.225,0.099c5.138,2.568,11.107,4.669,17.357,5.997l0.496,0.09c6.391,1.426,13.735,2.245,21.268,2.245h0.576h-0.028h0.542
	c7.532,0,14.879-0.819,21.941-2.372l-0.673,0.127c6.745-1.418,12.717-3.514,18.293-6.284l-0.439,0.197
	c4.73-2.279,8.733-5.329,12.022-9.029l0.033-0.038c2.671-2.918,4.338-6.796,4.42-11.059V79.01c-0.082-4.281-1.749-8.159-4.43-11.093
	l0.01,0.014c-3.322-3.738-7.325-6.789-11.832-8.968l-0.224-0.099c-5.137-2.568-11.108-4.669-17.357-5.997l-0.496-0.089
	c-6.39-1.427-13.736-2.245-21.269-2.245c-0.191,0-0.383,0-0.574,0h0.028L70.405,50.552z M55.808,84.535
	c-0.612,0.557-1.309,1.034-2.067,1.408l-0.052,0.023c-0.66,0.318-1.441,0.612-2.254,0.837l-0.099,0.023
	c-0.804,0.291-1.735,0.463-2.708,0.463c-0.038,0-0.075,0-0.113,0h0.004h-9.225l-1.498,9.185h-6.77l5.989-31.228h12.973
	c0.084,0,0.187-0.005,0.29-0.005c1.685,0,3.303,0.294,4.799,0.837l-0.097-0.033c1.38,0.505,2.554,1.292,3.499,2.288l0.005,0.006
	c0.818,1.042,1.403,2.306,1.656,3.691l0.009,0.052c0.117,0.683,0.187,1.468,0.187,2.273c0,0.917-0.089,1.81-0.257,2.68l0.014-0.088
	c-0.168,0.837-0.389,1.567-0.664,2.269l0.033-0.089c-0.269,0.69-0.556,1.34-0.862,1.952c-0.379,0.611-0.802,1.224-1.262,1.838
	c-0.449,0.603-0.94,1.132-1.483,1.604l-0.014,0.009L55.808,84.535z M75.326,87.29l2.642-13.202c0.113-0.5,0.18-1.072,0.18-1.661
	c0-0.121-0.005-0.244-0.01-0.365v0.019c-0.005-0.51-0.202-0.973-0.52-1.325c-0.322-0.281-0.705-0.496-1.126-0.626l-0.023-0.005
	c-0.585-0.187-1.261-0.291-1.956-0.291c-0.08,0-0.16,0-0.24,0.005h0.01h-5.267l-3.444,17.45h-6.657l5.988-30.315h6.657l-1.604,8.267
	h5.988c0.102,0,0.219-0.004,0.341-0.004c1.55,0,3.054,0.191,4.495,0.546l-0.125-0.027c1.164,0.256,2.18,0.804,2.998,1.553
	l-0.005-0.005c0.731,0.575,1.248,1.395,1.432,2.33l0.005,0.023c0.065,0.416,0.104,0.894,0.104,1.38c0,0.796-0.099,1.567-0.292,2.302
	l0.017-0.066l-2.758,14.007L75.326,87.29z M112.295,77.073c-0.188,0.846-0.384,1.535-0.618,2.213l0.042-0.146
	c-0.252,0.744-0.562,1.39-0.94,1.989l0.023-0.038c-0.322,0.726-0.705,1.347-1.159,1.909l0.015-0.019
	c-0.459,0.57-0.95,1.075-1.483,1.539l-0.015,0.014c-0.613,0.557-1.31,1.034-2.068,1.408l-0.052,0.023
	c-0.658,0.318-1.441,0.612-2.255,0.837l-0.099,0.023c-0.804,0.291-1.735,0.463-2.708,0.463c-0.038,0-0.075,0-0.113,0h0.005h-9.226
	l-1.603,9.165h-6.658l5.987-31.228h12.86c0.104-0.004,0.221-0.004,0.343-0.004c1.707,0,3.351,0.294,4.869,0.841l-0.104-0.033
	c1.345,0.487,2.476,1.273,3.359,2.284l0.01,0.009c0.889,1.038,1.521,2.325,1.771,3.738l0.007,0.046
	c0.104,0.614,0.164,1.315,0.164,2.036c0,1.033-0.122,2.035-0.35,2.999l0.019-0.089L112.295,77.073z M99.663,69.835h-4.575
	l-2.4,12.861h4.004h0.244c1.169,0,2.321-0.107,3.433-0.309l-0.115,0.019c0.955-0.168,1.806-0.51,2.554-0.991l-0.028,0.013
	c0.637-0.57,1.171-1.229,1.587-1.969l0.019-0.038c0.482-0.879,0.842-1.904,1.025-2.985l0.009-0.056
	c0.144-0.603,0.224-1.3,0.224-2.016c0-0.347-0.019-0.688-0.057-1.021l0.005,0.042c-0.065-0.739-0.336-1.408-0.752-1.96l0.004,0.009
	c-0.543-0.505-1.194-0.898-1.913-1.137l-0.038-0.009c-0.869-0.291-1.866-0.454-2.905-0.454c-0.106,0-0.214,0-0.317,0.005h0.014
	L99.663,69.835z M47.313,69.835h-4.576l-2.408,12.861h4.013h0.244c1.169,0,2.32-0.107,3.434-0.309l-0.117,0.019
	c0.955-0.168,1.806-0.51,2.555-0.991l-0.028,0.013c0.636-0.57,1.169-1.229,1.585-1.969l0.019-0.038
	c0.482-0.879,0.843-1.904,1.025-2.985l0.009-0.056c0.145-0.603,0.225-1.3,0.225-2.016c0-0.347-0.019-0.688-0.056-1.021l0.004,0.042
	c-0.065-0.739-0.336-1.408-0.753-1.96l0.005,0.009c-0.542-0.505-1.193-0.898-1.913-1.137l-0.038-0.009
	c-0.87-0.291-1.867-0.454-2.906-0.454c-0.107,0-0.215,0-0.317,0.005h0.013L47.313,69.835z"/>
<g>
	<path fill="#566181" d="M22.43,134.379c2.553-0.427,5.896-0.79,10.15-0.79c5.227,0,9.056,1.215,11.487,3.403
		c2.249,1.944,3.586,4.923,3.586,8.569c0,3.708-1.094,6.625-3.161,8.754c-2.796,2.977-7.354,4.497-12.521,4.497
		c-1.581,0-3.04-0.062-4.255-0.365v16.412H22.43V134.379z M27.718,154.132c1.155,0.304,2.614,0.426,4.376,0.426
		c6.382,0,10.272-3.1,10.272-8.753c0-5.409-3.829-8.022-9.664-8.022c-2.31,0-4.073,0.183-4.984,0.426V154.132z"/>
	<path fill="#566181" d="M60.058,133.892v17.14h19.815v-17.14h5.35v40.967h-5.35v-19.208H60.058v19.208H54.77v-40.967H60.058z"/>
	<path fill="#566181" d="M94.405,134.379c2.553-0.427,5.896-0.79,10.15-0.79c5.228,0,9.057,1.215,11.487,3.403
		c2.25,1.944,3.586,4.923,3.586,8.569c0,3.708-1.093,6.625-3.16,8.754c-2.796,2.977-7.355,4.497-12.521,4.497
		c-1.581,0-3.039-0.062-4.255-0.365v16.412h-5.288V134.379z M99.693,154.132c1.154,0.304,2.614,0.426,4.376,0.426
		c6.382,0,10.271-3.1,10.271-8.753c0-5.409-3.828-8.022-9.663-8.022c-2.311,0-4.073,0.183-4.984,0.426V154.132z"/>
</g>
</svg>
