<?xml version="1.0" encoding="utf-8"?>
<!-- Generator: Adobe Illustrator 16.0.0, SVG Export Plug-In . SVG Version: 6.00 Build 0)  -->
<!DOCTYPE svg PUBLIC "-//W3C//DTD SVG 1.1//EN" "http://www.w3.org/Graphics/SVG/1.1/DTD/svg11.dtd">
<svg version="1.1" id="Calque_1" xmlns="http://www.w3.org/2000/svg" xmlns:xlink="http://www.w3.org/1999/xlink" x="0px" y="0px"
	 width="140.811px" height="182.021px" viewBox="0 0 140.811 182.021" enable-background="new 0 0 140.811 182.021"
	 xml:space="preserve">
<g>
	<path fill="#566181" d="M92.729,48.085V0H0v126.428H140.81V48.085H92.729z M65.907,39.431c1.107-1.079,2.469-1.619,4.086-1.619
		s2.979,0.54,4.086,1.619c1.105,1.079,1.658,2.401,1.658,3.967c0,1.608-0.542,2.941-1.627,3.999s-2.458,1.587-4.117,1.587
		c-1.66,0-3.032-0.528-4.117-1.587c-1.085-1.058-1.627-2.391-1.627-3.999C64.249,41.833,64.8,40.51,65.907,39.431z M84.116,113.68
		H56.059v-1.333c2.539-0.336,4.357-0.811,5.459-1.42c1.101-0.611,1.988-1.653,2.666-3.129c0.465-0.968,0.794-2.431,0.983-4.389
		c0.19-1.958,0.285-4.789,0.285-8.495v-15.6c0-4.336-0.104-7.377-0.315-9.125c-0.213-1.748-0.678-3.168-1.396-4.264
		c-0.721-1.179-1.588-2.032-2.604-2.558c-1.017-0.525-2.476-0.852-4.38-0.979v-1.333l18.281-2.285v36.56l0.063,4.809
		c0,2.866,0.169,4.965,0.508,6.293c0.339,1.329,0.994,2.435,1.969,3.319c1.185,1.14,3.363,2.004,6.537,2.595V113.68z"/>
	<polygon fill="#3E4552" points="140.81,48.085 92.729,0 92.729,48.085 	"/>
	<path fill="#3492D0" d="M83.469,153.746c0.034-5.48-3.068-8.962-9.41-8.962c-1.551,0-2.724,0.138-3.516,0.311v18.338
		c0.758,0.138,1.862,0.172,3.034,0.172C79.987,163.604,83.469,160.019,83.469,153.746z"/>
	<path fill="#3492D0" d="M55.552,149.471c-0.517-1.517-0.862-2.896-1.207-4.239h-0.069c-0.345,1.379-0.724,2.792-1.172,4.205
		l-2.275,6.722h6.997L55.552,149.471z"/>
	<path fill="#3492D0" d="M22.26,149.058c0-2.999-2.172-4.309-5.343-4.344c-1.448,0-2.482,0.139-2.964,0.276v8.479h3.068
		C20.226,153.47,22.26,151.713,22.26,149.058z"/>
	<path fill="#3492D0" d="M0,182.021H140.81v-55.594H0V182.021z M118.206,142.578h12.547v2.517h-9.547v7.342h9.03v2.481h-9.03v8.376
		h10.064v2.517h-13.064V142.578z M91.497,142.578h3.826l3.965,11.237c0.965,2.86,1.758,5.411,2.344,7.824h0.104
		c0.586-2.344,1.412-4.895,2.447-7.824l4.136-11.237h3.826l1.448,23.232h-2.931l-0.586-10.203c-0.173-3.24-0.379-7.135-0.345-10.03
		h-0.104c-0.793,2.723-1.758,5.618-2.93,8.824l-4.102,11.271h-2.275l-3.757-11.064c-1.103-3.275-2.034-6.274-2.688-9.031h-0.069
		c-0.069,2.896-0.241,6.79-0.448,10.271l-0.62,9.962h-2.861L91.497,142.578z M67.544,142.888c1.827-0.276,3.999-0.483,6.376-0.483
		c4.309,0,7.377,1,9.41,2.896c2.068,1.896,3.275,4.585,3.275,8.342c0,3.792-1.172,6.895-3.344,9.031
		c-2.172,2.172-5.756,3.344-10.271,3.344c-2.138,0-3.93-0.104-5.447-0.276V142.888z M52.587,142.578h3.619l7.928,23.232h-3.206
		l-2.481-7.308h-8.238l-2.413,7.308h-3.102L52.587,142.578z M29.495,142.578h12.547v2.517h-9.548v7.342h9.031v2.481h-9.031v8.376
		h10.065v2.517H29.495V142.578z M10.953,142.888c1.517-0.311,3.688-0.483,5.756-0.483c3.206,0,5.274,0.586,6.722,1.896
		c1.172,1.034,1.827,2.619,1.827,4.412c0,3.067-1.931,5.102-4.378,5.929v0.104c1.792,0.62,2.861,2.274,3.413,4.688
		c0.758,3.24,1.31,5.48,1.792,6.377h-3.103c-0.379-0.655-0.896-2.654-1.551-5.55c-0.689-3.205-1.931-4.412-4.654-4.516h-2.826
		v10.065h-2.999V142.888z"/>
	<path fill="#566181" d="M13.952,155.745h2.826c2.723,0.104,3.964,1.311,4.654,4.516c0.655,2.896,1.172,4.895,1.551,5.55h3.103
		c-0.483-0.896-1.034-3.137-1.792-6.377c-0.552-2.413-1.62-4.067-3.413-4.688v-0.104c2.447-0.827,4.378-2.861,4.378-5.929
		c0-1.793-0.655-3.378-1.827-4.412c-1.448-1.311-3.516-1.896-6.722-1.896c-2.068,0-4.24,0.173-5.756,0.483v22.922h2.999V155.745z
		 M13.952,144.991c0.482-0.138,1.517-0.276,2.964-0.276c3.171,0.035,5.343,1.345,5.343,4.344c0,2.654-2.034,4.412-5.239,4.412
		h-3.068V144.991z"/>
	<polygon fill="#566181" points="42.559,163.294 32.494,163.294 32.494,154.918 41.525,154.918 41.525,152.436 32.494,152.436 
		32.494,145.094 42.042,145.094 42.042,142.578 29.495,142.578 29.495,165.81 42.559,165.81 	"/>
	<path fill="#566181" d="M50.209,158.503h8.238l2.481,7.308h3.206l-7.928-23.232h-3.619l-7.894,23.232h3.102L50.209,158.503z
		 M53.104,149.437c0.448-1.413,0.827-2.826,1.172-4.205h0.069c0.345,1.344,0.689,2.723,1.207,4.239l2.275,6.688h-6.997
		L53.104,149.437z"/>
	<path fill="#566181" d="M83.262,162.674c2.172-2.137,3.344-5.239,3.344-9.031c0-3.757-1.207-6.445-3.275-8.342
		c-2.033-1.896-5.102-2.896-9.41-2.896c-2.378,0-4.549,0.207-6.376,0.483v22.853c1.517,0.173,3.309,0.276,5.447,0.276
		C77.507,166.017,81.091,164.845,83.262,162.674z M70.543,145.094c0.792-0.173,1.965-0.311,3.516-0.311
		c6.342,0,9.444,3.481,9.41,8.962c0,6.273-3.482,9.858-9.893,9.858c-1.172,0-2.275-0.034-3.034-0.172V145.094z"/>
	<path fill="#566181" d="M93.358,155.848c0.207-3.481,0.379-7.376,0.448-10.271h0.069c0.654,2.757,1.586,5.756,2.688,9.031
		l3.757,11.064h2.275l4.102-11.271c1.172-3.206,2.137-6.102,2.93-8.824h0.104c-0.034,2.896,0.172,6.79,0.345,10.03l0.586,10.203
		h2.931l-1.448-23.232h-3.826l-4.136,11.237c-1.035,2.93-1.861,5.48-2.447,7.824h-0.104c-0.586-2.413-1.379-4.964-2.344-7.824
		l-3.965-11.237h-3.826l-1.62,23.232h2.861L93.358,155.848z"/>
	<polygon fill="#566181" points="131.27,163.294 121.206,163.294 121.206,154.918 130.236,154.918 130.236,152.436 121.206,152.436 
		121.206,145.094 130.753,145.094 130.753,142.578 118.206,142.578 118.206,165.81 131.27,165.81 	"/>
	<path fill="#3492D0" d="M75.61,106.433c-0.339-1.328-0.508-3.427-0.508-6.293l-0.063-4.809v-36.56l-18.281,2.285v1.333
		c1.904,0.127,3.363,0.453,4.38,0.979c1.016,0.525,1.883,1.379,2.604,2.558c0.719,1.096,1.184,2.516,1.396,4.264
		c0.211,1.748,0.315,4.789,0.315,9.125v15.6c0,3.706-0.095,6.537-0.285,8.495c-0.189,1.958-0.519,3.421-0.983,4.389
		c-0.678,1.476-1.565,2.518-2.666,3.129c-1.102,0.609-2.92,1.084-5.459,1.42v1.333h28.057v-1.333
		c-3.174-0.591-5.353-1.455-6.537-2.595C76.604,108.868,75.949,107.762,75.61,106.433z"/>
	<path fill="#3492D0" d="M69.993,48.984c1.659,0,3.032-0.529,4.117-1.587s1.627-2.391,1.627-3.999c0-1.565-0.553-2.888-1.658-3.967
		c-1.106-1.079-2.469-1.619-4.086-1.619s-2.979,0.54-4.086,1.619s-1.658,2.401-1.658,3.967c0,1.608,0.542,2.941,1.627,3.999
		C66.961,48.456,68.333,48.984,69.993,48.984z"/>
</g>
</svg>
