<?xml version="1.0" encoding="utf-8"?>
<!-- Generator: Adobe Illustrator 16.0.0, SVG Export Plug-In . SVG Version: 6.00 Build 0)  -->
<!DOCTYPE svg PUBLIC "-//W3C//DTD SVG 1.1//EN" "http://www.w3.org/Graphics/SVG/1.1/DTD/svg11.dtd">
<svg version="1.1" id="Calque_1" xmlns="http://www.w3.org/2000/svg" xmlns:xlink="http://www.w3.org/1999/xlink" x="0px" y="0px"
	 width="140.811px" height="182.021px" viewBox="0 0 140.811 182.021" enable-background="new 0 0 140.811 182.021"
	 xml:space="preserve">
<g>
	<path fill="#566181" d="M92.729,48.085V0H0v126.428H140.81V48.085H92.729z M83.757,112.116l2.112-5.729l-0.937,5.988
		c1.435,0.349,2.558,0.752,3.304,1.192l2.365-3.246l-0.932,3.935h-0.618c0.129,0.18,0.217,0.362,0.217,0.55
		c0,2.074-8.141,3.755-18.183,3.755c-10.043,0-18.183-1.681-18.183-3.755c0-0.65,0.801-1.262,2.209-1.795l-1.253-2.155l1.788,1.974
		c1.395-0.464,3.254-0.86,5.459-1.16l-0.912-7.549l2.728,7.334c0.475-0.05,0.959-0.096,1.458-0.137
		c0.051-19.442-2.745-30.378-7.041-38.297c-1.274-2.333-2.678-4.407-4.178-6.362c0.021,0.017,0.04,0.035,0.061,0.052
		c-0.36-0.473-0.725-0.941-1.096-1.402c5.937,4.048,10.352,10.673,13.494,18.111c0.001-1.662-0.002-3.38-0.01-5.146
		c0-0.188-0.001-0.375-0.002-0.564c0-0.164-0.002-0.33-0.002-0.494c-0.13-23.681-1.028-55.034-1.877-68.053
		c0,0,0.008,0.074,0.022,0.209c-0.007-0.114-0.015-0.235-0.022-0.347c0.09,0.367,0.181,0.74,0.271,1.112
		c0.008,0.036,0.016,0.079,0.024,0.116c5.709,23.674,9.663,57.522,11.572,79.392c3.1-3.799,7.919-6.092,15.341-5.033
		c-12.177,0.524-14.527,15.177-12.948,26.718C80.152,111.516,82.105,111.784,83.757,112.116z"/>
	<polygon fill="#3E4552" points="140.81,48.085 92.729,0 92.729,48.085 	"/>
	<path fill="#3492D0" d="M0,182.021H140.81v-55.594H0V182.021z M121.381,135.134c4.326,0,7.713,0.943,9.321,1.722l-1.165,3.939
		c-1.997-0.889-4.495-1.608-8.27-1.608c-9.102,0-15.04,5.659-15.04,15.041c0,9.488,5.717,15.093,14.43,15.093
		c3.164,0,5.327-0.443,6.439-0.999v-11.157h-7.605v-3.882h12.322v17.981c-2.166,0.777-6.438,2.052-11.489,2.052
		c-5.66,0-10.322-1.441-13.985-4.936c-3.22-3.108-5.217-8.106-5.217-13.933C101.177,143.29,108.835,135.134,121.381,135.134z
		 M90.07,135.522h4.828v37.404H90.07V135.522z M44.811,135.522l4.44,18.925c1.11,4.66,2.11,9.323,2.775,12.931h0.111
		c0.612-3.716,1.776-8.158,3.053-12.989l4.995-18.866h5.051l4.55,18.979c1.056,4.443,2.055,8.88,2.61,12.821h0.11
		c0.777-4.104,1.83-8.271,2.997-12.935l4.939-18.866h4.939l-10.6,37.404h-5.051l-4.718-19.478
		c-1.166-4.772-1.943-8.437-2.443-12.211h-0.11c-0.667,3.72-1.499,7.385-2.886,12.211l-5.328,19.478h-5.05l-9.492-37.404H44.811z
		 M8.997,135.522h27.695v4.107H25.26v33.297h-4.883V139.63H8.997V135.522z"/>
	<polygon fill="#566181" points="20.376,172.927 25.26,172.927 25.26,139.63 36.693,139.63 36.693,135.522 8.997,135.522 
		8.997,139.63 20.376,139.63 	"/>
	<path fill="#566181" d="M54.247,172.927l5.328-19.478c1.388-4.826,2.219-8.491,2.886-12.211h0.11
		c0.5,3.774,1.277,7.438,2.443,12.211l4.718,19.478h5.051l10.6-37.404h-4.939l-4.939,18.866c-1.167,4.664-2.22,8.831-2.997,12.935
		h-0.11c-0.556-3.941-1.555-8.378-2.61-12.821l-4.55-18.979h-5.051l-4.995,18.866c-1.277,4.831-2.44,9.273-3.053,12.989h-0.111
		c-0.665-3.607-1.665-8.271-2.775-12.931l-4.44-18.925h-5.106l9.492,37.404H54.247z"/>
	<rect x="90.07" y="135.522" fill="#566181" width="4.828" height="37.404"/>
	<path fill="#566181" d="M120.324,173.315c5.051,0,9.323-1.274,11.489-2.052v-17.981h-12.322v3.882h7.605v11.157
		c-1.112,0.556-3.275,0.999-6.439,0.999c-8.713,0-14.43-5.604-14.43-15.093c0-9.382,5.938-15.041,15.04-15.041
		c3.774,0,6.272,0.72,8.27,1.608l1.165-3.939c-1.608-0.778-4.995-1.722-9.321-1.722c-12.546,0-20.203,8.156-20.259,19.313
		c0,5.826,1.997,10.824,5.217,13.933C110.002,171.874,114.664,173.315,120.324,173.315z"/>
	<path fill="#566181" d="M53.16,66.659c1.5,1.955,2.903,4.028,4.178,6.362c-1.255-2.314-2.64-4.372-4.117-6.31
		C53.2,66.695,53.181,66.676,53.16,66.659z"/>
	<path opacity="0.17" fill="#3492D0" enable-background="new    " d="M53.16,66.659c1.5,1.955,2.903,4.028,4.178,6.362
		c-1.255-2.314-2.64-4.372-4.117-6.31C53.2,66.695,53.181,66.676,53.16,66.659z"/>
	<path fill="#3492D0" d="M64.393,115.41l0.108,0.292l5.128,0.222c0.184-5.716,0.313-35.831-16.408-49.212
		c1.477,1.938,2.861,3.995,4.117,6.31C61.954,81.473,64.861,93.348,64.393,115.41z"/>
	<path opacity="0.17" fill="#3492D0" enable-background="new    " d="M64.393,115.41l0.108,0.292l5.128,0.222
		c0.184-5.716,0.313-35.831-16.408-49.212c1.477,1.938,2.861,3.995,4.117,6.31C61.954,81.473,64.861,93.348,64.393,115.41z"/>
	<path fill="#3492D0" d="M90.935,84.615c-7.422-1.059-12.241,1.234-15.341,5.033c-1.909-21.87-5.863-55.717-11.572-79.392
		c-0.008-0.038-0.016-0.08-0.024-0.116c-0.089-0.373-0.18-0.746-0.271-1.112c0.007,0.111,0.015,0.232,0.022,0.347
		c-0.014-0.135-0.022-0.209-0.022-0.209c0.849,13.019,1.747,44.372,1.877,68.053c0,0.164,0.002,0.33,0.002,0.494
		c0.001,0.189,0.002,0.375,0.002,0.564c0.008,1.766,0.011,3.484,0.01,5.146c-3.142-7.438-7.557-14.063-13.494-18.111
		c0.371,0.461,0.736,0.929,1.096,1.402c16.721,13.381,16.592,43.496,16.408,49.212l-5.128-0.222l-0.108-0.292
		c0.468-22.062-2.439-33.937-7.055-42.389c4.296,7.919,7.092,18.854,7.041,38.297c-0.498,0.041-0.982,0.087-1.458,0.137
		l-2.728-7.334l0.912,7.549c-2.206,0.3-4.065,0.696-5.459,1.16l-1.788-1.974l1.253,2.155c-1.408,0.533-2.209,1.145-2.209,1.795
		c0,2.074,8.14,3.755,18.183,3.755c10.042,0,18.183-1.681,18.183-3.755c0-0.188-0.088-0.37-0.217-0.55h0.618l0.932-3.935
		l-2.365,3.246c-0.746-0.44-1.869-0.844-3.304-1.192l0.937-5.988l-2.112,5.729c-1.651-0.332-3.604-0.6-5.77-0.783
		C76.408,99.792,78.759,85.139,90.935,84.615z M75.965,117.24c-2.197,0.391-4.851,0.584-5.004,0.45
		c-0.206-0.18-3.515-22.031,6.866-30.251C74.086,97.364,75.637,114.162,75.965,117.24z"/>
	<path fill="#3492D0" d="M77.827,87.439c-10.381,8.22-7.072,30.072-6.866,30.251c0.153,0.134,2.807-0.06,5.004-0.45
		C75.637,114.162,74.086,97.364,77.827,87.439z"/>
	<path opacity="0.08" fill="#3492D0" enable-background="new    " d="M77.827,87.439c-10.381,8.22-7.072,30.072-6.866,30.251
		c0.153,0.134,2.807-0.06,5.004-0.45C75.637,114.162,74.086,97.364,77.827,87.439z"/>
</g>
</svg>
